<svg width="25" height="24" viewBox="0 0 25 24" fill="none" xmlns="http://www.w3.org/2000/svg">
    <g clip-path="url(#clip0_502_10)">
        <path
            d="M16.4748 21.9743C15.895 22.7647 15.0934 23.3648 14.1718 23.6985C13.2502 24.0322 12.2501 24.0843 11.2988 23.8483V23.8483C8.64588 23.1202 6.22803 21.7145 4.28278 19.7693C2.33754 17.8241 0.931833 15.4062 0.203776 12.7533C-0.0315679 11.803 0.0209388 10.8042 0.354623 9.88379C0.688307 8.96339 1.2881 8.16299 2.07778 7.5843C2.08808 11.3988 3.60843 15.054 6.30636 17.7507C9.00429 20.4473 12.6603 21.9659 16.4748 21.9743V21.9743ZM23.8828 3.6743L17.4508 20.0003H17.0508C15.3276 20.0597 13.6105 19.7641 12.0064 19.1319C10.4023 18.4996 8.94536 17.5442 7.72614 16.3249C6.50693 15.1057 5.55149 13.6488 4.91921 12.0447C4.28694 10.4405 3.99134 8.72351 4.05078 7.0003V6.6003L20.3508 0.178303C20.84 0.000630632 21.3696 -0.0344994 21.878 0.076998C22.3864 0.188496 22.8528 0.442039 23.2227 0.80814C23.5927 1.17424 23.8511 1.63785 23.968 2.14506C24.0848 2.65227 24.0553 3.18223 23.8828 3.6733V3.6743ZM12.0508 10.0003C12.0508 9.46987 11.8401 8.96116 11.465 8.58609C11.0899 8.21102 10.5812 8.0003 10.0508 8.0003C9.52034 8.0003 9.01164 8.21102 8.63656 8.58609C8.26149 8.96116 8.05078 9.46987 8.05078 10.0003C8.05078 10.5307 8.26149 11.0394 8.63656 11.4145C9.01164 11.7896 9.52034 12.0003 10.0508 12.0003C10.5812 12.0003 11.0899 11.7896 11.465 11.4145C11.8401 11.0394 12.0508 10.5307 12.0508 10.0003ZM18.1728 12.7163L20.7268 6.2303C16.4668 4.7383 14.1088 10.9063 18.1728 12.7163V12.7163Z"
            fill="rgb(76 121 135)" />
    </g>
    <defs>
        <clipPath id="clip0_502_10">
            <rect width="24" height="24" fill="white" transform="translate(0.0509949)" />
        </clipPath>
    </defs>
</svg>