<svg width="25" height="24" viewBox="0 0 25 24" fill="none" xmlns="http://www.w3.org/2000/svg">
    <g clip-path="url(#clip0_502_44)">
        <path
            d="M2.53103 5.825C2.30295 5.23887 2.15299 4.62527 2.08503 4C2.08503 2.93913 2.50646 1.92172 3.25661 1.17157C4.00675 0.421427 5.02417 0 6.08504 0C7.1459 0 8.16332 0.421427 8.91346 1.17157C9.66361 1.92172 10.085 2.93913 10.085 4C10.0171 4.62527 9.86712 5.23887 9.63904 5.825C9.38461 6.53042 9.19907 7.25882 9.08504 8H3.08503C2.971 7.25882 2.78546 6.53042 2.53103 5.825V5.825ZM9.59604 10H2.57403C2.35703 10.5 2.09403 11.012 1.82103 11.537C0.801421 13.1873 0.205104 15.0638 0.0850346 17C0.0661528 18.6199 0.402724 20.2243 1.07103 21.7C1.39411 22.3881 1.90658 22.9699 2.54841 23.3773C3.19024 23.7846 3.93486 24.0006 4.69504 24H7.47504C8.23522 24.0006 8.97983 23.7846 9.62166 23.3773C10.2635 22.9699 10.776 22.3881 11.099 21.7C11.7673 20.2243 12.1039 18.6199 12.085 17C11.965 15.0638 11.3686 13.1873 10.349 11.537C10.076 11.012 9.81304 10.5 9.59604 10ZM24.085 16C24.084 17.3587 23.7371 18.6948 23.0772 19.8825C22.4172 21.0702 21.4658 22.0704 20.3126 22.7889C19.1594 23.5074 17.8423 23.9205 16.4853 23.9895C15.1283 24.0584 13.7761 23.7809 12.556 23.183C12.6881 22.9765 12.8073 22.7621 12.913 22.541C13.7046 20.8021 14.1047 18.9105 14.085 17C13.9731 14.7416 13.2991 12.5469 12.124 10.615C11.915 10.215 11.717 9.82 11.539 9.434C12.7369 8.59868 14.1411 8.10805 15.5985 8.01555C17.056 7.92304 18.5109 8.23221 19.8048 8.90938C21.0987 9.58654 22.182 10.6057 22.9367 11.856C23.6914 13.1063 24.0886 14.5396 24.085 16ZM18.085 15C18.085 14.8022 18.0264 14.6089 17.9165 14.4444C17.8066 14.28 17.6504 14.1518 17.4677 14.0761C17.285 14.0004 17.0839 13.9806 16.8899 14.0192C16.696 14.0578 16.5178 14.153 16.3779 14.2929C16.2381 14.4327 16.1428 14.6109 16.1043 14.8049C16.0657 14.9989 16.0855 15.2 16.1612 15.3827C16.2368 15.5654 16.365 15.7216 16.5295 15.8315C16.6939 15.9414 16.8873 16 17.085 16C17.3503 16 17.6046 15.8946 17.7921 15.7071C17.9797 15.5196 18.085 15.2652 18.085 15ZM20.085 12C20.085 11.8022 20.0264 11.6089 19.9165 11.4444C19.8066 11.28 19.6504 11.1518 19.4677 11.0761C19.285 11.0004 19.0839 10.9806 18.8899 11.0192C18.696 11.0578 18.5178 11.153 18.3779 11.2929C18.2381 11.4327 18.1428 11.6109 18.1043 11.8049C18.0657 11.9989 18.0855 12.2 18.1612 12.3827C18.2368 12.5654 18.365 12.7216 18.5295 12.8315C18.6939 12.9414 18.8873 13 19.085 13C19.3503 13 19.6046 12.8946 19.7921 12.7071C19.9797 12.5196 20.085 12.2652 20.085 12ZM22.085 15C22.085 14.8022 22.0264 14.6089 21.9165 14.4444C21.8066 14.28 21.6504 14.1518 21.4677 14.0761C21.285 14.0004 21.0839 13.9806 20.8899 14.0192C20.696 14.0578 20.5178 14.153 20.3779 14.2929C20.2381 14.4327 20.1428 14.6109 20.1043 14.8049C20.0657 14.9989 20.0855 15.2 20.1612 15.3827C20.2368 15.5654 20.365 15.7216 20.5295 15.8315C20.6939 15.9414 20.8873 16 21.085 16C21.3503 16 21.6046 15.8946 21.7921 15.7071C21.9797 15.5196 22.085 15.2652 22.085 15Z"
            fill="rgb(76 121 135)" />
    </g>
    <defs>
        <clipPath id="clip0_502_44">
            <rect width="24" height="24" fill="white" transform="translate(0.0849915)" />
        </clipPath>
    </defs>
</svg>