<svg width="25" height="24" viewBox="0 0 25 24" fill="none" xmlns="http://www.w3.org/2000/svg">
    <g clip-path="url(#clip0_502_6)">
        <path
            d="M14.017 7C14.017 5.14349 13.2795 3.36301 11.9667 2.05025C10.654 0.737498 8.87351 0 7.017 0C5.16048 0 3.38001 0.737498 2.06725 2.05025C0.754496 3.36301 0.0169983 5.14349 0.0169983 7C0.0169983 10.971 2.274 15.485 5.407 16.685C5.19022 17.046 5.05697 17.4509 5.017 17.87C5.017 19.441 6.506 20.137 7.593 20.646C8.193 20.926 9.017 21.311 9.017 21.609C8.93553 21.9195 8.78971 22.2095 8.589 22.46C8.51809 22.5706 8.46964 22.694 8.44644 22.8233C8.42324 22.9526 8.42573 23.0852 8.45378 23.2135C8.48182 23.3419 8.53487 23.4634 8.60989 23.5713C8.6849 23.6791 8.78043 23.7711 8.891 23.842C9.11431 23.9852 9.38537 24.0339 9.64455 23.9772C9.77288 23.9492 9.89443 23.8961 10.0023 23.8211C10.1101 23.7461 10.2021 23.6506 10.273 23.54C10.6974 22.979 10.9553 22.3098 11.017 21.609C11.017 20.038 9.528 19.342 8.441 18.834C7.841 18.553 7.017 18.168 7.008 17.969C7.16002 17.6108 7.35047 17.2701 7.576 16.953C11.244 16.475 14.017 11.4 14.017 7ZM9.193 10.47C9.6538 9.72092 9.93577 8.87571 10.017 8C10.017 7.73478 10.1224 7.48043 10.3099 7.29289C10.4974 7.10536 10.7518 7 11.017 7C11.2822 7 11.5366 7.10536 11.7241 7.29289C11.9116 7.48043 12.017 7.73478 12.017 8C11.9352 9.25133 11.5475 10.4635 10.888 11.53C10.8184 11.6416 10.7275 11.7384 10.6205 11.8149C10.5135 11.8914 10.3924 11.9461 10.2643 11.9758C10.1361 12.0055 10.0034 12.0097 9.87362 11.9881C9.74386 11.9665 9.61962 11.9196 9.508 11.85C9.39638 11.7804 9.29955 11.6895 9.22306 11.5825C9.14657 11.4755 9.09191 11.3544 9.06219 11.2263C9.03248 11.0981 9.02829 10.9654 9.04988 10.8356C9.07147 10.7059 9.1184 10.5816 9.188 10.47H9.193ZM19.517 18.589C18.835 18.227 18.131 17.852 18.033 17.427C17.987 17.234 18.008 16.799 18.548 15.954C21.717 15.5 24.017 11.025 24.017 7C24.0449 6.20454 23.9089 5.41185 23.6172 4.67126C23.3256 3.93067 22.8846 3.25803 22.3218 2.69521C21.759 2.13239 21.0863 1.69143 20.3457 1.39979C19.6052 1.10815 18.8125 0.972063 18.017 1C16.7724 0.983245 15.552 1.34449 14.517 2.036C15.4963 3.50618 16.0183 5.23349 16.017 7C15.9679 9.3796 15.3566 11.7138 14.233 13.812C14.8047 14.5962 15.5601 15.228 16.433 15.652C16.0639 16.3328 15.9396 17.1196 16.081 17.881C16.387 19.191 17.6 19.836 18.575 20.355C19.191 20.683 19.888 21.055 19.994 21.423C20.0203 21.8083 19.9086 22.1904 19.679 22.501C19.6123 22.6148 19.5688 22.7406 19.5509 22.8713C19.533 23.0019 19.5412 23.1348 19.5749 23.2623C19.6086 23.3898 19.6672 23.5094 19.7473 23.6142C19.8274 23.7189 19.9275 23.8068 20.0417 23.8728C20.1559 23.9387 20.282 23.9814 20.4128 23.9984C20.5436 24.0154 20.6764 24.0064 20.8037 23.9718C20.931 23.9373 21.0501 23.8779 21.1544 23.7971C21.2586 23.7163 21.3458 23.6156 21.411 23.501C21.6724 23.1219 21.8524 22.6927 21.9395 22.2406C22.0266 21.7884 22.0189 21.3231 21.917 20.874C21.6946 20.3492 21.3668 19.8756 20.954 19.4826C20.5412 19.0896 20.0521 18.7854 19.517 18.589V18.589ZM19.192 10.47C19.6532 9.72101 19.9355 8.87579 20.017 8C20.017 7.73478 20.1224 7.48043 20.3099 7.29289C20.4974 7.10536 20.7518 7 21.017 7C21.2822 7 21.5366 7.10536 21.7241 7.29289C21.9116 7.48043 22.017 7.73478 22.017 8C21.9352 9.25133 21.5475 10.4635 20.888 11.53C20.7474 11.7554 20.5231 11.9158 20.2643 11.9758C20.0055 12.0358 19.7334 11.9906 19.508 11.85C19.2826 11.7094 19.1222 11.4851 19.0622 11.2263C19.0022 10.9675 19.0474 10.6954 19.188 10.47H19.192Z"
            fill="rgb(76 121 135)" />
    </g>
    <defs>
        <clipPath id="clip0_502_6">
            <rect width="24" height="24" fill="white" transform="translate(0.0169983)" />
        </clipPath>
    </defs>
</svg>