<svg width="25" height="24" viewBox="0 0 25 24" fill="none" xmlns="http://www.w3.org/2000/svg">
    <g clip-path="url(#clip0_502_30)">
        <path
            d="M23.085 10.9996C22.8198 10.9996 22.5654 10.8942 22.3779 10.7067C22.1904 10.5191 22.085 10.2648 22.085 9.99956C22.0829 7.87848 21.2394 5.84488 19.7395 4.34505C18.2397 2.84522 16.2061 2.00168 14.085 1.99956C13.8198 1.99956 13.5654 1.89421 13.3779 1.70667C13.1904 1.51913 13.085 1.26478 13.085 0.999563C13.085 0.734346 13.1904 0.479992 13.3779 0.292456C13.5654 0.104919 13.8198 -0.0004376 14.085 -0.0004376C16.7363 0.002474 19.2781 1.05698 21.1529 2.93171C23.0276 4.80644 24.0821 7.34829 24.085 9.99956C24.085 10.2648 23.9797 10.5191 23.7921 10.7067C23.6046 10.8942 23.3502 10.9996 23.085 10.9996ZM20.085 9.99956C20.085 8.40826 19.4529 6.88214 18.3277 5.75692C17.2024 4.6317 15.6763 3.99956 14.085 3.99956C13.8198 3.99956 13.5654 4.10492 13.3779 4.29246C13.1904 4.47999 13.085 4.73435 13.085 4.99956C13.085 5.26478 13.1904 5.51913 13.3779 5.70667C13.5654 5.89421 13.8198 5.99956 14.085 5.99956C15.1459 5.99956 16.1633 6.42099 16.9134 7.17114C17.6636 7.92128 18.085 8.9387 18.085 9.99956C18.085 10.2648 18.1904 10.5191 18.3779 10.7067C18.5654 10.8942 18.8198 10.9996 19.085 10.9996C19.3502 10.9996 19.6046 10.8942 19.7921 10.7067C19.9797 10.5191 20.085 10.2648 20.085 9.99956ZM22.268 22.1636L23.178 21.1146C23.7572 20.5335 24.0825 19.7465 24.0825 18.9261C24.0825 18.1056 23.7572 17.3186 23.178 16.7376C23.147 16.7066 20.741 14.8556 20.741 14.8556C20.1636 14.3059 19.3966 13.9998 18.5993 14.0009C17.8021 14.0021 17.0359 14.3103 16.46 14.8616L14.554 16.4676C12.9982 15.8237 11.5849 14.8787 10.3953 13.6871C9.2057 12.4954 8.26324 11.0805 7.62202 9.52356L9.22202 7.62356C9.77374 7.04774 10.0823 6.28144 10.0836 5.48397C10.0849 4.68649 9.77885 3.91919 9.22902 3.34156C9.22902 3.34156 7.37602 0.938562 7.34502 0.907562C6.77447 0.333311 6.0009 0.00658442 5.19145 -0.00202282C4.38199 -0.01063 3.60165 0.299573 3.01902 0.861562L1.86902 1.86156C-4.92498 9.74356 9.70502 24.2606 17.847 23.9996C18.6692 24.0043 19.484 23.8443 20.2433 23.529C21.0026 23.2136 21.6911 22.7494 22.268 22.1636V22.1636Z"
            fill="rgb(76 121 135)" />
    </g>
    <defs>
        <clipPath id="clip0_502_30">
            <rect width="24" height="24" fill="white" transform="translate(0.0849915)" />
        </clipPath>
    </defs>
</svg>