<svg width="25" height="24" viewBox="0 0 25 24" fill="none" xmlns="http://www.w3.org/2000/svg">
    <g clip-path="url(#clip0_502_38)">
        <path
            d="M0.158998 3.99927C0.380047 3.14312 0.878546 2.38435 1.57657 1.84157C2.27459 1.29878 3.13278 1.00258 4.017 0.999268H15.017C15.9012 1.00258 16.7594 1.29878 17.4574 1.84157C18.1555 2.38435 18.6539 3.14312 18.875 3.99927H0.158998ZM8.959 19.9993C8.99563 20.1635 9.01507 20.331 9.017 20.4993C9.017 21.1623 8.75361 21.7982 8.28477 22.267C7.81592 22.7359 7.18004 22.9993 6.517 22.9993C5.85396 22.9993 5.21807 22.7359 4.74923 22.267C4.28039 21.7982 4.017 21.1623 4.017 20.4993C4.01893 20.331 4.03837 20.1635 4.075 19.9993H8.959ZM19.959 19.9993C19.9956 20.1635 20.0151 20.331 20.017 20.4993C20.017 21.1623 19.7536 21.7982 19.2848 22.267C18.8159 22.7359 18.18 22.9993 17.517 22.9993C16.854 22.9993 16.2181 22.7359 15.7492 22.267C15.2804 21.7982 15.017 21.1623 15.017 20.4993C15.0189 20.331 15.0384 20.1635 15.075 19.9993H19.959ZM10.017 17.9993H13.017V5.99927H10.017V17.9993ZM19.017 9.99927V5.99927H15.017V9.99927H19.017ZM8.017 9.99927V5.99927H5.017V9.99927H8.017ZM20.017 11.9993H15.017V17.9993H22.017C22.5474 17.9993 23.0561 17.7886 23.4312 17.4135C23.8063 17.0384 24.017 16.5297 24.017 15.9993C24.017 14.9384 23.5956 13.921 22.8454 13.1708C22.0953 12.4207 21.0779 11.9993 20.017 11.9993V11.9993ZM3.017 9.99927V5.99927H0.0169983V9.99927H3.017ZM8.017 11.9993H0.0169983V14.9993C0.0169983 15.7949 0.333069 16.558 0.895678 17.1206C1.45829 17.6832 2.22135 17.9993 3.017 17.9993H8.017V11.9993Z"
            fill="rgb(76 121 135)" />
    </g>
    <defs>
        <clipPath id="clip0_502_38">
            <rect width="24" height="24" fill="white" transform="translate(0.0169983)" />
        </clipPath>
    </defs>
</svg>