<svg width="25" height="24" viewBox="0 0 25 24" fill="none" xmlns="http://www.w3.org/2000/svg">
    <g clip-path="url(#clip0_502_24)">
        <path
            d="M12.034 14C16.31 14 19.668 7.708 20.699 3.945C20.4355 3.24199 20.0161 2.60787 19.4722 2.09033C18.9284 1.57279 18.2742 1.1853 17.559 0.957C15.7773 0.356516 13.9139 0.0337401 12.034 0C10.1543 0.0340187 8.29091 0.356442 6.50903 0.956C5.79385 1.18467 5.13979 1.57241 4.59595 2.09009C4.05211 2.60778 3.63264 3.24196 3.36903 3.945C4.40003 7.708 7.75803 14 12.034 14ZM10.034 3H14.034C14.2992 3 14.5536 3.10536 14.7411 3.29289C14.9287 3.48043 15.034 3.73478 15.034 4C15.034 4.26522 14.9287 4.51957 14.7411 4.70711C14.5536 4.89464 14.2992 5 14.034 5H10.034C9.76881 5 9.51446 4.89464 9.32692 4.70711C9.13938 4.51957 9.03403 4.26522 9.03403 4C9.03403 3.73478 9.13938 3.48043 9.32692 3.29289C9.51446 3.10536 9.76881 3 10.034 3V3ZM21.034 8.585C19.143 12.323 16.005 16 12.034 16C8.06303 16 4.92503 12.323 3.03403 8.585V16.177C3.03411 17.4333 3.50715 18.6436 4.35903 19.567L3.11003 22.621C3.0582 22.7429 3.03113 22.8739 3.03036 23.0064C3.02959 23.1389 3.05516 23.2702 3.10556 23.3927C3.15597 23.5152 3.23021 23.6265 3.32399 23.72C3.41776 23.8136 3.52919 23.8876 3.65181 23.9378C3.77442 23.9879 3.90578 24.0132 4.03825 24.0121C4.17072 24.0111 4.30166 23.9837 4.42347 23.9317C4.54528 23.8796 4.65552 23.8038 4.74781 23.7088C4.84009 23.6137 4.91256 23.5013 4.96103 23.378L6.03403 20.745C7.91227 21.6151 9.96452 22.0443 12.034 22C14.1036 22.0447 16.1559 21.6154 18.034 20.745L19.111 23.378C19.1607 23.4996 19.2339 23.6102 19.3264 23.7036C19.4188 23.7969 19.5288 23.8711 19.6499 23.9219C19.771 23.9728 19.901 23.9992 20.0323 23.9999C20.1637 24.0005 20.2939 23.9752 20.4155 23.9255C20.5371 23.8758 20.6478 23.8026 20.7411 23.7102C20.8344 23.6177 20.9086 23.5078 20.9594 23.3866C21.0103 23.2655 21.0368 23.1355 21.0374 23.0042C21.038 22.8728 21.0127 22.7426 20.963 22.621L19.713 19.567C20.5634 18.643 21.035 17.4328 21.034 16.177V8.585ZM12.034 20C11.8362 20 11.6429 19.9414 11.4785 19.8315C11.314 19.7216 11.1858 19.5654 11.1101 19.3827C11.0345 19.2 11.0147 18.9989 11.0532 18.8049C11.0918 18.6109 11.1871 18.4327 11.3269 18.2929C11.4668 18.153 11.645 18.0578 11.8389 18.0192C12.0329 17.9806 12.234 18.0004 12.4167 18.0761C12.5994 18.1518 12.7556 18.28 12.8655 18.4444C12.9754 18.6089 13.034 18.8022 13.034 19C13.034 19.2652 12.9287 19.5196 12.7411 19.7071C12.5536 19.8946 12.2992 20 12.034 20Z"
            fill="rgb(76 121 135)" />
    </g>
    <defs>
        <clipPath id="clip0_502_24">
            <rect width="24" height="24" fill="white" transform="translate(0.0339966)" />
        </clipPath>
    </defs>
</svg>