<svg width="25" height="24" viewBox="0 0 25 24" fill="none" xmlns="http://www.w3.org/2000/svg">
    <g clip-path="url(#clip0_502_8)">
        <path
            d="M14.034 11.0005C13.8362 11.0004 13.6429 10.9417 13.4785 10.8319C13.3141 10.722 13.186 10.5658 13.1103 10.3831C13.0346 10.2004 13.0148 9.99938 13.0534 9.80542C13.092 9.61147 13.1872 9.43331 13.327 9.29345L16.293 6.32745C15.1952 5.43592 13.8134 4.96882 12.3998 5.01141C10.9863 5.054 9.63512 5.60344 8.59299 6.55945C8.43322 6.71842 8.28454 6.88815 8.14799 7.06745C7.9689 7.32564 7.73844 7.54408 7.47104 7.70909C7.20365 7.87411 6.90506 7.98215 6.59399 8.02645C4.89739 8.14127 3.29936 8.865 2.09399 10.0645C-0.862015 13.0215 -0.606015 18.0895 2.66899 21.3645C4.29904 23.0256 6.52078 23.9734 8.84799 24.0005C9.79548 24.0131 10.7361 23.8376 11.6153 23.4841C12.4945 23.1307 13.2948 22.6063 13.97 21.9415C15.1694 20.7361 15.8932 19.138 16.008 17.4415C16.0523 17.1304 16.1603 16.8318 16.3253 16.5644C16.4904 16.297 16.7088 16.0665 16.967 15.8875C17.1463 15.7509 17.316 15.6022 17.475 15.4425C18.4299 14.3997 18.9785 13.0488 19.0211 11.6355C19.0637 10.2223 18.5973 8.84077 17.707 7.74245L14.741 10.7085C14.5533 10.8956 14.299 11.0007 14.034 11.0005ZM7.74098 19.7075C7.55346 19.8949 7.29915 20.0002 7.03399 20.0002C6.76882 20.0002 6.51451 19.8949 6.32699 19.7075L4.32699 17.7075C4.14483 17.5189 4.04403 17.2662 4.04631 17.0041C4.04859 16.7419 4.15376 16.491 4.33917 16.3056C4.52457 16.1202 4.77539 16.0151 5.03758 16.0128C5.29978 16.0105 5.55238 16.1113 5.74098 16.2935L7.74098 18.2935C7.92846 18.481 8.03377 18.7353 8.03377 19.0005C8.03377 19.2656 7.92846 19.5199 7.74098 19.7075ZM10.034 17.0005C9.44064 17.0005 8.86062 16.8245 8.36727 16.4949C7.87393 16.1652 7.48941 15.6967 7.26235 15.1485C7.03528 14.6003 6.97587 13.9971 7.09163 13.4152C7.20739 12.8332 7.49311 12.2987 7.91266 11.8791C8.33222 11.4596 8.86677 11.1739 9.44871 11.0581C10.0307 10.9423 10.6339 11.0018 11.182 11.2288C11.7302 11.4559 12.1987 11.8404 12.5284 12.3337C12.858 12.8271 13.034 13.4071 13.034 14.0005C13.034 14.7961 12.7179 15.5592 12.1553 16.1218C11.5927 16.6844 10.8296 17.0005 10.034 17.0005V17.0005ZM11.034 14.0005C11.034 14.1982 10.9753 14.3916 10.8655 14.556C10.7556 14.7205 10.5994 14.8486 10.4167 14.9243C10.2339 15 10.0329 15.0198 9.83889 14.9812C9.64491 14.9427 9.46673 14.8474 9.32688 14.7076C9.18703 14.5677 9.09178 14.3895 9.0532 14.1955C9.01461 14.0016 9.03442 13.8005 9.11011 13.6178C9.18579 13.435 9.31397 13.2789 9.47841 13.169C9.64286 13.0591 9.8362 13.0005 10.034 13.0005C10.2992 13.0005 10.5536 13.1058 10.7411 13.2933C10.9286 13.4809 11.034 13.7352 11.034 14.0005ZM23.516 3.01845L23.302 3.23245C22.5736 3.9587 21.6718 4.48674 20.682 4.76645L17.707 7.74145C17.5125 7.46851 17.2979 7.21046 17.065 6.96945C16.824 6.73655 16.5659 6.52195 16.293 6.32745L19.268 3.35245C19.5477 2.36267 20.0757 1.4608 20.802 0.732454L21.016 0.518454C21.3493 0.195775 21.7961 0.017044 22.26 0.0208103C22.724 0.0245766 23.1678 0.210538 23.4959 0.538587C23.8239 0.866636 24.0099 1.31048 24.0136 1.7744C24.0174 2.23831 23.8387 2.68512 23.516 3.01845Z"
            fill="rgb(76 121 135)" />
    </g>
    <defs>
        <clipPath id="clip0_502_8">
            <rect width="24" height="24" fill="white" transform="translate(0.0339966)" />
        </clipPath>
    </defs>
</svg>