<svg width="25" height="24" viewBox="0 0 25 24" fill="none" xmlns="http://www.w3.org/2000/svg">
    <g clip-path="url(#clip0_502_32)">
        <path
            d="M19.9828 4C19.9828 2.93913 19.5614 1.92172 18.8112 1.17157C18.0611 0.421427 17.0437 0 15.9828 0L9.98282 0C8.92195 0 7.90454 0.421427 7.15439 1.17157C6.40425 1.92172 5.98282 2.93913 5.98282 4V5H19.9828V4Z"
            fill="rgb(76 121 135)" />
        <path
            d="M16.9828 15H8.98282C7.32596 15 5.98282 16.3431 5.98282 18V21C5.98282 22.6569 7.32596 24 8.98282 24H16.9828C18.6397 24 19.9828 22.6569 19.9828 21V18C19.9828 16.3431 18.6397 15 16.9828 15Z"
            fill="rgb(76 121 135)" />
        <path
            d="M19.9827 7.00024H5.98267C4.65707 7.00183 3.38622 7.52913 2.44889 8.46646C1.51155 9.4038 0.984254 10.6746 0.982666 12.0002L0.982666 16.0002C0.983944 16.972 1.26837 17.9223 1.80117 18.735C2.33396 19.5477 3.09203 20.1875 3.98267 20.5762V18.0002C3.98425 16.6746 4.51155 15.4038 5.44889 14.4665C6.38622 13.5291 7.65707 13.0018 8.98267 13.0002H16.9827C18.3083 13.0018 19.5791 13.5291 20.5164 14.4665C21.4538 15.4038 21.9811 16.6746 21.9827 18.0002V20.5762C22.8733 20.1875 23.6314 19.5477 24.1642 18.735C24.697 17.9223 24.9814 16.972 24.9827 16.0002V12.0002C24.9811 10.6746 24.4538 9.4038 23.5164 8.46646C22.5791 7.52913 21.3083 7.00183 19.9827 7.00024V7.00024ZM18.9827 11.0002H16.9827C16.7174 11.0002 16.4631 10.8949 16.2756 10.7074C16.088 10.5198 15.9827 10.2655 15.9827 10.0002C15.9827 9.73503 16.088 9.48067 16.2756 9.29314C16.4631 9.1056 16.7174 9.00024 16.9827 9.00024H18.9827C19.2479 9.00024 19.5022 9.1056 19.6898 9.29314C19.8773 9.48067 19.9827 9.73503 19.9827 10.0002C19.9827 10.2655 19.8773 10.5198 19.6898 10.7074C19.5022 10.8949 19.2479 11.0002 18.9827 11.0002Z"
            fill="rgb(76 121 135)" />
    </g>
    <defs>
        <clipPath id="clip0_502_32">
            <rect width="24" height="24" fill="white" transform="translate(0.982666)" />
        </clipPath>
    </defs>
</svg>