<svg width="25" height="24" viewBox="0 0 25 24" fill="none" xmlns="http://www.w3.org/2000/svg">
    <g clip-path="url(#clip0_502_4)">
        <path
            d="M22.4825 14.119L18.9995 12L22.4825 9.881C22.8448 9.66399 23.1603 9.37699 23.4105 9.03676C23.6608 8.69653 23.8408 8.30987 23.94 7.89935C24.0392 7.48882 24.0557 7.06265 23.9884 6.64569C23.9212 6.22873 23.7716 5.82934 23.5484 5.4708C23.3252 5.11227 23.0328 4.80177 22.6883 4.55744C22.3438 4.3131 21.9541 4.1398 21.542 4.04767C21.1298 3.95553 20.7034 3.9464 20.2876 4.0208C19.8719 4.0952 19.4751 4.25164 19.1205 4.481L15.9825 6.49V3C15.9825 2.20435 15.6664 1.44129 15.1038 0.87868C14.5412 0.31607 13.7782 0 12.9825 0C12.1869 0 11.4238 0.31607 10.8612 0.87868C10.2986 1.44129 9.98251 2.20435 9.98251 3V6.588L6.84451 4.481C6.12888 4.05238 5.27353 3.92201 4.46271 4.11797C3.65188 4.31394 2.95048 4.82056 2.5096 5.5287C2.06872 6.23684 1.92364 7.08982 2.10562 7.9039C2.2876 8.71797 2.78206 9.42799 3.48251 9.881L6.96551 12L3.48251 14.119C2.78206 14.572 2.2876 15.282 2.10562 16.0961C1.92364 16.9102 2.06872 17.7632 2.5096 18.4713C2.95048 19.1794 3.65188 19.6861 4.46271 19.882C5.27353 20.078 6.12888 19.9476 6.84451 19.519L9.98251 17.481V21C9.98251 21.7956 10.2986 22.5587 10.8612 23.1213C11.4238 23.6839 12.1869 24 12.9825 24C13.7782 24 14.5412 23.6839 15.1038 23.1213C15.6664 22.5587 15.9825 21.7956 15.9825 21V17.42L19.1205 19.52C19.8361 19.9486 20.6915 20.079 21.5023 19.883C22.3131 19.6871 23.0145 19.1804 23.4554 18.4723C23.8963 17.7642 24.0414 16.9112 23.8594 16.0971C23.6774 15.283 23.1829 14.573 22.4825 14.12V14.119Z"
            fill="rgb(76 121 135)" />
    </g>
    <defs>
        <clipPath id="clip0_502_4">
            <rect width="24" height="24" fill="white" transform="translate(0.982666)" />
        </clipPath>
    </defs>
</svg>