<svg width="25" height="24" viewBox="0 0 25 24" fill="none" xmlns="http://www.w3.org/2000/svg">
    <g clip-path="url(#clip0_502_40)">
        <path
            d="M7.034 5C7.034 3.67392 7.56078 2.40215 8.49846 1.46447C9.43614 0.526784 10.7079 0 12.034 0C13.3601 0 14.6318 0.526784 15.5695 1.46447C16.5072 2.40215 17.034 3.67392 17.034 5C17.034 5.53043 16.8233 6.03914 16.4482 6.41421C16.0731 6.78929 15.5644 7 15.034 7H12.234L13.864 4.555C14.0112 4.33434 14.0647 4.06424 14.0128 3.80413C13.9608 3.54402 13.8077 3.3152 13.587 3.168C13.3663 3.0208 13.0962 2.9673 12.8361 3.01924C12.576 3.07119 12.3472 3.22434 12.2 3.445L9.834 7H9.034C8.50356 7 7.99486 6.78929 7.61978 6.41421C7.24471 6.03914 7.034 5.53043 7.034 5V5ZM19.034 2H18.36C18.8046 2.93755 19.0349 3.96236 19.034 5C19.034 6.06087 18.6126 7.07828 17.8624 7.82843C17.1123 8.57857 16.0949 9 15.034 9H8.5L8.508 8.987C7.56166 8.90782 6.67954 8.47627 6.0362 7.77775C5.39286 7.07922 5.0352 6.16464 5.034 5.215C5.03887 4.10089 5.29417 3.00213 5.781 2H5.034C3.70791 2 2.43614 2.52678 1.49846 3.46447C0.560781 4.40215 0.0339966 5.67392 0.0339966 7L0.0339966 19C0.0339966 19.6566 0.163325 20.3068 0.414599 20.9134C0.665872 21.52 1.03417 22.0712 1.49846 22.5355C2.43614 23.4732 3.70791 24 5.034 24H19.034C19.6906 24 20.3408 23.8707 20.9474 23.6194C21.554 23.3681 22.1052 22.9998 22.5695 22.5355C23.0338 22.0712 23.4021 21.52 23.6534 20.9134C23.9047 20.3068 24.034 19.6566 24.034 19V7C24.034 6.34339 23.9047 5.69321 23.6534 5.08658C23.4021 4.47995 23.0338 3.92876 22.5695 3.46447C22.1052 3.00017 21.554 2.63188 20.9474 2.3806C20.3408 2.12933 19.6906 2 19.034 2V2Z"
            fill="rgb(76 121 135)" />
    </g>
    <defs>
        <clipPath id="clip0_502_40">
            <rect width="24" height="24" fill="white" transform="translate(0.0339966)" />
        </clipPath>
    </defs>
</svg>