<svg width="25" height="24" viewBox="0 0 25 24" fill="none" xmlns="http://www.w3.org/2000/svg">
    <g clip-path="url(#clip0_502_28)">
        <path
            d="M18.649 2.14073L12.384 0.0517291C12.1789 -0.016592 11.9571 -0.016592 11.752 0.0517291L5.48698 2.14073C4.49089 2.47161 3.6244 3.10799 3.01063 3.95944C2.39685 4.81089 2.06702 5.83412 2.06798 6.88373V12.0007C2.06798 19.5637 11.268 23.7407 11.662 23.9147C11.7898 23.9715 11.9281 24.0009 12.068 24.0009C12.2078 24.0009 12.3462 23.9715 12.474 23.9147C12.868 23.7407 22.068 19.5637 22.068 12.0007V6.88373C22.0689 5.83412 21.7391 4.81089 21.1253 3.95944C20.5116 3.10799 19.6451 2.47161 18.649 2.14073V2.14073ZM16.786 9.71773L12.514 13.9897C12.3392 14.1657 12.1311 14.3052 11.902 14.4002C11.6728 14.4951 11.427 14.5435 11.179 14.5427H11.146C10.8929 14.5389 10.6432 14.4837 10.412 14.3806C10.1808 14.2774 9.97296 14.1285 9.80098 13.9427L7.49498 11.5427C7.39511 11.4501 7.31523 11.338 7.26023 11.2133C7.20524 11.0887 7.17629 10.9542 7.17516 10.8179C7.17404 10.6817 7.20076 10.5467 7.25368 10.4211C7.30661 10.2956 7.38463 10.1822 7.48295 10.0879C7.58127 9.99363 7.69783 9.92042 7.82546 9.87278C7.95309 9.82515 8.08911 9.80409 8.22517 9.81091C8.36123 9.81772 8.49446 9.85227 8.6167 9.91243C8.73893 9.97258 8.84758 10.0571 8.93598 10.1607L11.18 12.5007L15.368 8.30073C15.5566 8.11857 15.8092 8.01778 16.0714 8.02006C16.3336 8.02234 16.5844 8.1275 16.7698 8.31291C16.9552 8.49832 17.0604 8.74913 17.0627 9.01133C17.0649 9.27353 16.9641 9.52613 16.782 9.71473L16.786 9.71773Z"
            fill="rgb(76 121 135)" />
    </g>
    <defs>
        <clipPath id="clip0_502_28">
            <rect width="24" height="24" fill="white" transform="translate(0.0679932)" />
        </clipPath>
    </defs>
</svg>