<svg width="25" height="24" viewBox="0 0 25 24" fill="none" xmlns="http://www.w3.org/2000/svg">
    <g clip-path="url(#clip0_502_42)">
        <path
            d="M24.051 15.0001C24.051 20.0771 17.051 24.0001 15.051 24.0001H9.05099C7.05099 24.0001 0.0509872 20.0771 0.0509872 15.0001C0.059408 14.2022 0.382016 13.4398 0.948852 12.8782C1.51569 12.3166 2.28106 12.0011 3.07899 12.0001H21.023C21.8208 12.0016 22.5858 12.3173 23.1526 12.8788C23.7193 13.4403 24.042 14.2024 24.051 15.0001V15.0001ZM19.765 3.02012C19.417 3.06812 19.038 3.13612 18.65 3.21312C18.945 2.33712 19.65 0.11312 18.05 0.000119878C17.7848 0.000119878 17.5304 0.105477 17.3429 0.293013C17.1553 0.48055 17.05 0.734904 17.05 1.00012C17.0617 1.57025 16.9507 2.13624 16.7245 2.65972C16.4983 3.1832 16.1622 3.65192 15.739 4.03412C14.8629 4.3239 14.053 4.78444 13.356 5.38912C12.7643 5.98074 12.3511 6.72689 12.1635 7.54229C11.9758 8.35768 12.0214 9.20941 12.295 10.0001H13.637L16.344 7.29312C16.5326 7.11096 16.7852 7.01017 17.0474 7.01245C17.3096 7.01472 17.5604 7.11989 17.7458 7.3053C17.9312 7.49071 18.0364 7.74152 18.0387 8.00372C18.0409 8.26592 17.9401 8.51852 17.758 8.70712L16.465 10.0001H20.716C21.3366 8.48571 21.7783 6.904 22.032 5.28712C22.0753 4.9793 22.0465 4.66563 21.9479 4.37084C21.8493 4.07605 21.6835 3.80819 21.4637 3.58839C21.2439 3.36859 20.9761 3.20284 20.6813 3.10423C20.3865 3.00561 20.0728 2.97682 19.765 3.02012V3.02012ZM10.051 10.0001C9.91699 4.72312 2.18399 4.72712 2.05099 10.0001H10.051ZM10.551 6.06812C10.9214 5.19236 11.4749 4.40598 12.1743 3.76178C12.8737 3.11757 13.7028 2.63045 14.606 2.33312C14.8621 2.01908 15.0132 1.63259 15.038 1.22812C14.5943 0.765239 14.0462 0.41531 13.4395 0.207587C12.8329 -0.0001356 12.1853 -0.0596155 11.551 0.0341199C10.8247 0.0924209 10.1304 0.358316 9.55099 0.80012C8.89624 0.30745 8.10412 0.0312905 7.28499 0.0101199C6.2449 -0.090377 5.20731 0.224925 4.39899 0.88712C3.86172 1.35847 3.46204 1.96643 3.24232 2.64653C3.0226 3.32664 2.99104 4.05353 3.15099 4.75012C4.3501 4.09406 5.73727 3.86709 7.08295 4.10676C8.42862 4.34644 9.65213 5.0384 10.551 6.06812V6.06812Z"
            fill="rgb(76 121 135)" />
    </g>
    <defs>
        <clipPath id="clip0_502_42">
            <rect width="24" height="24" fill="white" transform="translate(0.0509949)" />
        </clipPath>
    </defs>
</svg>