<svg width="25" height="24" viewBox="0 0 25 24" fill="none" xmlns="http://www.w3.org/2000/svg">
    <g clip-path="url(#clip0_502_12)">
        <path
            d="M11.0679 4.50009C11.0677 3.28248 10.7227 2.08983 10.0729 1.06009C11.8868 0.118505 13.9517 -0.226117 15.9731 0.075394C17.9944 0.376905 19.8688 1.30914 21.3289 2.73909C22.2445 3.65719 22.9604 4.75459 23.4317 5.96245C23.903 7.17031 24.1196 8.46255 24.0679 9.75809C23.9761 12.4423 22.8592 14.9892 20.9469 16.8751C20.1734 17.6543 19.2897 18.3157 18.3239 18.8381L8.85494 9.37309C9.54954 8.76526 10.1063 8.01608 10.4879 7.17569C10.8696 6.3353 11.0673 5.42308 11.0679 4.50009V4.50009ZM9.06794 4.50009C9.06794 3.61007 8.80402 2.74004 8.30956 2.00002C7.81509 1.26 7.11229 0.683222 6.29002 0.342628C5.46775 0.00203333 4.56295 -0.0870817 3.69004 0.0865518C2.81712 0.260185 2.0153 0.688769 1.38596 1.31811C0.756627 1.94744 0.328043 2.74926 0.15441 3.62218C-0.0192236 4.49509 0.0698915 5.39989 0.410486 6.22216C0.75108 7.04443 1.32786 7.74723 2.06788 8.2417C2.8079 8.73617 3.67793 9.00009 4.56794 9.00009C5.76101 8.99876 6.90484 8.52423 7.74846 7.6806C8.59209 6.83698 9.06662 5.69315 9.06794 4.50009V4.50009ZM7.12694 10.4731C6.31872 10.8211 5.44793 11.0005 4.56794 11.0001C4.40994 11.0001 4.25394 10.9871 4.09894 10.9761C4.14763 11.8437 4.31589 12.7005 4.59894 13.5221C4.74243 14.0287 4.92636 14.5229 5.14894 15.0001C5.20034 15.0921 5.22024 15.1984 5.20562 15.3027C5.191 15.4071 5.14265 15.5038 5.06794 15.5781L1.25394 18.2421V18.2561C0.90017 18.546 0.611841 18.9076 0.407951 19.3171C0.204061 19.7266 0.0892352 20.1746 0.0710386 20.6316C0.052842 21.0887 0.131687 21.5444 0.30238 21.9688C0.473073 22.3931 0.731741 22.7765 1.06134 23.0937C1.39095 23.4108 1.78401 23.6546 2.21463 23.8088C2.64525 23.963 3.10367 24.0243 3.55968 23.9885C4.01569 23.9528 4.45895 23.8208 4.86026 23.6013C5.26157 23.3818 5.61182 23.0798 5.88794 22.7151L5.89794 22.7211L8.46794 19.0001C8.54067 18.9166 8.63904 18.8597 8.74762 18.8381C8.85621 18.8166 8.96887 18.8317 9.06794 18.8811C10.4654 19.5983 12.0112 19.9791 13.5819 19.9931C14.5021 20.0148 15.4204 19.9002 16.3069 19.6531L7.12694 10.4731Z"
            fill="rgb(76 121 135)" />
    </g>
    <defs>
        <clipPath id="clip0_502_12">
            <rect width="24" height="24" fill="white" transform="translate(0.0679932)" />
        </clipPath>
    </defs>
</svg>