<svg width="25" height="24" viewBox="0 0 25 24" fill="none" xmlns="http://www.w3.org/2000/svg">
    <g clip-path="url(#clip0_502_46)">
        <path
            d="M0.359027 8.55206C0.14355 8.15238 0.043722 7.70056 0.0707478 7.24731C0.0977735 6.79405 0.250583 6.35729 0.512027 5.98606C0.939286 5.35917 1.51147 4.84462 2.18003 4.48606L9.68103 0.582055C10.4183 0.198686 11.237 -0.00146484 12.068 -0.00146484C12.899 -0.00146484 13.7178 0.198686 14.455 0.582055L21.955 4.48906C22.6236 4.84762 23.1958 5.36217 23.623 5.98906C23.8845 6.36029 24.0373 6.79705 24.0643 7.25031C24.0913 7.70356 23.9915 8.15538 23.776 8.55506C23.544 8.99389 23.1961 9.36066 22.7701 9.61544C22.3441 9.87023 21.8564 10.0033 21.36 10.0001H2.77603C2.27919 10.0032 1.79103 9.86976 1.36482 9.61442C0.938599 9.35908 0.590686 8.9916 0.359027 8.55206V8.55206ZM23.068 22.0001C23.068 21.4696 22.8573 20.9609 22.4822 20.5858C22.1072 20.2108 21.5985 20.0001 21.068 20.0001V12.0001H19.068V20.0001H16.068V12.0001H14.068V20.0001H10.068V12.0001H8.06803V20.0001H5.06803V12.0001H3.06803V20.0001C2.53759 20.0001 2.02889 20.2108 1.65381 20.5858C1.27874 20.9609 1.06803 21.4696 1.06803 22.0001C0.802811 22.0001 0.548457 22.1054 0.360921 22.293C0.173384 22.4805 0.0680273 22.7348 0.0680273 23.0001C0.0680273 23.2653 0.173384 23.5196 0.360921 23.7072C0.548457 23.8947 0.802811 24.0001 1.06803 24.0001H23.068C23.3332 24.0001 23.5876 23.8947 23.7751 23.7072C23.9627 23.5196 24.068 23.2653 24.068 23.0001C24.068 22.7348 23.9627 22.4805 23.7751 22.293C23.5876 22.1054 23.3332 22.0001 23.068 22.0001Z"
            fill="rgb(76 121 135)" />
    </g>
    <defs>
        <clipPath id="clip0_502_46">
            <rect width="24" height="24" fill="white" transform="translate(0.0679932)" />
        </clipPath>
    </defs>
</svg>