<svg width="25" height="24" viewBox="0 0 25 24" fill="none" xmlns="http://www.w3.org/2000/svg">
    <g clip-path="url(#clip0_502_16)">
        <path
            d="M7.38267 23.9997C5.68585 23.9979 4.05906 23.323 2.85923 22.1232C1.6594 20.9234 0.984519 19.2966 0.982666 17.5997C0.982666 14.5407 4.93467 13.2727 7.26867 13.0067C7.41826 12.9887 7.56999 13.0051 7.71228 13.0547C7.85456 13.1043 7.98365 13.1857 8.08967 13.2927L11.6897 16.8927C11.7961 16.999 11.8772 17.128 11.9269 17.27C11.9766 17.4119 11.9936 17.5633 11.9767 17.7127C11.7097 20.0477 10.4407 23.9997 7.38267 23.9997V23.9997ZM11.1427 9.22775L8.86267 11.2367L13.7457 16.1197L15.7547 13.8397L11.1427 9.22775ZM24.2667 0.715747C23.8273 0.27921 23.239 0.0251212 22.62 0.00453046C22.001 -0.0160603 21.3971 0.198373 20.9297 0.604747L12.6467 7.89975L17.0827 12.3357L24.3827 4.04975C24.788 3.58211 25.0013 2.97841 24.9798 2.35995C24.9582 1.74149 24.7035 1.15409 24.2667 0.715747V0.715747Z"
            fill="rgb(76 121 135)" />
    </g>
    <defs>
        <clipPath id="clip0_502_16">
            <rect width="24" height="24" fill="white" transform="translate(0.982666)" />
        </clipPath>
    </defs>
</svg>