<svg width="25" height="24" viewBox="0 0 25 24" fill="none" xmlns="http://www.w3.org/2000/svg">
    <g clip-path="url(#clip0_502_26)">
        <path
            d="M23.325 6.74331L17.379 0.800318C16.9583 0.365057 16.3979 0.0916019 15.7959 0.027801C15.1939 -0.0359999 14.5887 0.113916 14.086 0.451319C13.7897 0.662057 13.5429 0.934901 13.3629 1.25082C13.1828 1.56675 13.0739 1.91814 13.0436 2.2805C13.0133 2.64286 13.0625 3.00747 13.1876 3.34889C13.3127 3.69031 13.5108 4.00032 13.768 4.25731L14.36 4.84831C14.5109 5.00007 14.5955 5.20535 14.5955 5.41931C14.5955 5.63328 14.5109 5.83855 14.36 5.99031L12.26 8.09031C12.0757 8.2738 11.8471 8.40643 11.5963 8.4753C11.3455 8.54417 11.0812 8.54693 10.829 8.48331L10.009 8.27331C9.06342 8.02647 8.08101 7.95228 7.10904 8.05431C6.47028 8.12074 5.86383 8.36841 5.36118 8.76812C4.85853 9.16783 4.48063 9.70292 4.27204 10.3103C4.04357 10.9381 3.99908 11.6182 4.14381 12.2704C4.28853 12.9226 4.61646 13.52 5.08904 13.9923L6.83504 15.8003L0.344042 22.2933C0.248532 22.3855 0.172349 22.4959 0.11994 22.6179C0.0675313 22.7399 0.0399451 22.8711 0.0387913 23.0039C0.0376374 23.1367 0.0629392 23.2683 0.11322 23.3912C0.163501 23.5141 0.237754 23.6258 0.331647 23.7197C0.425539 23.8136 0.537191 23.8878 0.660088 23.9381C0.782984 23.9884 0.914664 24.0137 1.04744 24.0125C1.18022 24.0114 1.31144 23.9838 1.43345 23.9314C1.55545 23.879 1.66579 23.8028 1.75804 23.7073L8.22504 17.2403L9.47504 18.5343C10.3224 19.4333 11.4912 19.9604 12.726 20.0003C13.1252 20.0008 13.5216 19.9331 13.898 19.8003C14.4725 19.602 14.9772 19.2415 15.351 18.7623C15.7248 18.2831 15.9516 17.7058 16.004 17.1003C16.1052 16.1372 16.0327 15.1638 15.79 14.2263L15.578 13.2003C15.5186 12.9501 15.5241 12.6888 15.5942 12.4413C15.6642 12.1938 15.7963 11.9683 15.978 11.7863L18.067 9.70031C18.2295 9.55125 18.4397 9.46477 18.66 9.45631C18.7568 9.45611 18.8526 9.4752 18.9419 9.51246C19.0312 9.54972 19.1121 9.6044 19.18 9.67331L19.686 10.1793C20.1046 10.6262 20.6687 10.9093 21.2772 10.9778C21.8856 11.0464 22.4985 10.8959 23.006 10.5533C23.3024 10.3426 23.5493 10.0699 23.7295 9.75398C23.9096 9.4381 24.0186 9.08672 24.049 8.72436C24.0794 8.36199 24.0303 7.99737 23.9053 7.6559C23.7803 7.31444 23.5822 7.00437 23.325 6.74731V6.74331Z"
            fill="rgb(76 121 135)" />
    </g>
    <defs>
        <clipPath id="clip0_502_26">
            <rect width="24" height="24" fill="white" transform="translate(0.0509949)" />
        </clipPath>
    </defs>
</svg>