<svg width="25" height="24" viewBox="0 0 25 24" fill="none" xmlns="http://www.w3.org/2000/svg">
    <g clip-path="url(#clip0_502_14)">
        <path
            d="M22.1861 5.03354C21.2905 3.4413 19.6982 2.54565 17.9069 2.54565H6.06444C4.27316 2.54565 2.68086 3.4413 1.78522 5.03354C0.690546 7.02386 0.0934525 9.21325 0.0934525 11.5021C0.0934525 16.9755 2.2828 21.4538 5.06928 21.4538C6.56202 21.4538 7.75625 20.0605 8.65189 17.1745C8.75141 16.7765 9.14947 16.4779 9.64705 16.4779H14.5234C14.9214 16.4779 15.3195 16.7765 15.5185 17.1745C16.4142 20.0605 17.6083 21.4538 19.1011 21.4538C21.8876 21.4538 24.077 16.9755 24.077 11.5021C23.8779 9.2132 23.2808 7.02386 22.1861 5.03354ZM9.04995 10.507H8.0548V11.5021C8.0548 12.0992 7.65673 12.4973 7.05964 12.4973C6.46255 12.4973 6.06448 12.0992 6.06448 11.5021V10.507H5.06933C4.47223 10.507 4.07417 10.1089 4.07417 9.5118C4.07417 8.9147 4.47223 8.51664 5.06933 8.51664H6.06448V7.52148C6.06448 6.92439 6.46255 6.52633 7.05964 6.52633C7.65673 6.52633 8.0548 6.92439 8.0548 7.52148V8.51664H9.04995C9.64705 8.51664 10.0451 8.9147 10.0451 9.5118C10.0451 10.1089 9.64705 10.507 9.04995 10.507ZM15.618 12.4973C14.8219 12.4973 14.1253 11.8007 14.1253 11.0045C14.1253 10.2084 14.8219 9.5118 15.618 9.5118C16.4142 9.5118 17.1108 10.2084 17.1108 11.0045C17.1108 11.8007 16.3146 12.4973 15.618 12.4973ZM18.504 9.5118C17.8074 9.5118 17.0113 8.81519 17.0113 8.01906C17.0113 7.22294 17.8074 6.52633 18.504 6.52633C19.2006 6.52633 19.9968 7.22294 19.9968 8.01906C19.9968 8.81519 19.3002 9.5118 18.504 9.5118Z"
            fill="rgb(76 121 135)" />
    </g>
    <defs>
        <clipPath id="clip0_502_14">
            <rect width="24" height="24" fill="white" transform="translate(0.0849915)" />
        </clipPath>
    </defs>
</svg>