<svg width="25" height="24" viewBox="0 0 25 24" fill="none" xmlns="http://www.w3.org/2000/svg">
    <g clip-path="url(#clip0_502_22)">
        <path
            d="M22.0169 10C21.9722 11.9004 21.4994 13.7663 20.6337 15.4587C19.768 17.1512 18.5317 18.6265 17.0169 19.775V23C17.0169 23.2652 16.9116 23.5196 16.724 23.7071C16.5365 23.8946 16.2821 24 16.0169 24C15.7517 24 15.4973 23.8946 15.3098 23.7071C15.1223 23.5196 15.0169 23.2652 15.0169 23V2C15.0079 1.62426 15.1106 1.25431 15.3119 0.936929C15.5132 0.619551 15.8042 0.369011 16.1479 0.217C16.5428 0.0563652 16.9758 0.0142302 17.3942 0.0957442C17.8126 0.177258 18.1982 0.378891 18.5039 0.676C20.8233 3.22095 22.0803 6.5573 22.0169 10V10ZM11.0169 0C10.7517 0 10.4973 0.105357 10.3098 0.292893C10.1223 0.48043 10.0169 0.734784 10.0169 1V7C10.0143 7.61826 9.82082 8.22063 9.46282 8.7247C9.10482 9.22877 8.59982 9.60992 8.01691 9.816V1C8.01691 0.734784 7.91155 0.48043 7.72401 0.292893C7.53648 0.105357 7.28212 0 7.01691 0C6.75169 0 6.49734 0.105357 6.3098 0.292893C6.12226 0.48043 6.01691 0.734784 6.01691 1V9.816C5.434 9.60992 4.929 9.22877 4.57099 8.7247C4.21299 8.22063 4.01947 7.61826 4.01691 7V1C4.01691 0.734784 3.91155 0.48043 3.72401 0.292893C3.53648 0.105357 3.28212 0 3.01691 0C2.75169 0 2.49734 0.105357 2.3098 0.292893C2.12226 0.48043 2.01691 0.734784 2.01691 1V7C2.01836 8.1522 2.417 9.26868 3.14562 10.1613C3.87425 11.0538 4.88832 11.6679 6.01691 11.9V23C6.01691 23.2652 6.12226 23.5196 6.3098 23.7071C6.49734 23.8946 6.75169 24 7.01691 24C7.28212 24 7.53648 23.8946 7.72401 23.7071C7.91155 23.5196 8.01691 23.2652 8.01691 23V11.9C9.14549 11.6679 10.1596 11.0538 10.8882 10.1613C11.6168 9.26868 12.0155 8.1522 12.0169 7V1C12.0169 0.734784 11.9115 0.48043 11.724 0.292893C11.5365 0.105357 11.2821 0 11.0169 0V0Z"
            fill='rgb(76 121 135)' />
    </g>
    <defs>
        <clipPath id="clip0_502_22">
            <rect width="24" height="24" fill="white" transform="translate(0.0169983)" />
        </clipPath>
    </defs>
</svg>