<svg viewBox="0 0 25 25" fill="none" xmlns="http://www.w3.org/2000/svg">
    <g clip-path="url(#clip0_243_1228)">
        <path
            d="M22.2046 18.7595C21.8568 19.5631 21.4451 20.3027 20.9681 20.9828C20.3178 21.9098 19.7854 22.5515 19.3751 22.9079C18.7391 23.4928 18.0577 23.7924 17.3279 23.8094C16.8041 23.8094 16.1723 23.6603 15.4369 23.3579C14.699 23.057 14.021 22.9079 13.401 22.9079C12.7508 22.9079 12.0534 23.057 11.3075 23.3579C10.5605 23.6603 9.95864 23.8179 9.49851 23.8335C8.79873 23.8634 8.10123 23.5553 7.405 22.9079C6.96064 22.5203 6.40482 21.8559 5.73898 20.9146C5.02458 19.9095 4.43724 18.7439 3.97712 17.415C3.48433 15.9797 3.2373 14.5898 3.2373 13.2442C3.2373 11.7028 3.57037 10.3734 4.23749 9.25937C4.76179 8.36453 5.45929 7.65865 6.33227 7.14046C7.20525 6.62226 8.14851 6.3582 9.16431 6.3413C9.72013 6.3413 10.449 6.51323 11.3548 6.85112C12.258 7.19015 12.838 7.36207 13.0922 7.36207C13.2823 7.36207 13.9266 7.16104 15.0188 6.76026C16.0516 6.38858 16.9233 6.23468 17.6374 6.2953C19.5725 6.45147 21.0263 7.21428 21.9931 8.58856C20.2625 9.63716 19.4064 11.1058 19.4234 12.9899C19.439 14.4575 19.9714 15.6787 21.0178 16.6484C21.4919 17.0984 22.0215 17.4463 22.6107 17.6933C22.4829 18.0638 22.348 18.4188 22.2046 18.7595V18.7595ZM17.7666 1.29566C17.7666 2.44592 17.3464 3.51991 16.5088 4.51399C15.4979 5.69576 14.2753 6.37864 12.9494 6.27088C12.9325 6.13289 12.9227 5.98765 12.9227 5.83503C12.9227 4.73078 13.4034 3.54902 14.2571 2.58276C14.6833 2.09353 15.2253 1.68674 15.8827 1.36224C16.5386 1.04258 17.159 0.865798 17.7425 0.835526C17.7595 0.989298 17.7666 1.14308 17.7666 1.29564V1.29566Z"
            fill="black" />
    </g>
    <defs>
        <clipPath id="clip0_243_1228">
            <rect width="24" height="24" fill="white" transform="translate(0.923828 0.33551)" />
        </clipPath>
    </defs>
</svg>