<svg viewBox="0 0 10 10" fill="none" xmlns="http://www.w3.org/2000/svg">
    <path fill-rule="evenodd" clip-rule="evenodd"
        d="M6.60883 6.82282C5.91868 6.60442 5.00382 6.52854 4.01606 6.52854C1.93818 6.52854 0.16333 6.85603 0.16333 8.16645C0.16333 9.47639 1.9271 9.81592 4.01606 9.81592C5.81355 9.81592 7.38426 9.57085 7.77545 8.65643C7.91428 8.69499 8.0606 8.71561 8.21175 8.71561V9.07922C8.21175 9.17062 8.32144 9.21531 8.38441 9.15031L8.95115 8.58357C8.99178 8.54294 8.99178 8.47997 8.95115 8.43935L8.38441 7.87261C8.37009 7.85857 8.35194 7.84909 8.33224 7.84535C8.31253 7.84161 8.29217 7.84379 8.2737 7.85161C8.25524 7.85943 8.2395 7.87255 8.22848 7.8893C8.21745 7.90604 8.21163 7.92568 8.21175 7.94573V8.30934C8.09185 8.30934 7.97595 8.29196 7.86645 8.25959C7.86801 8.23283 7.8688 8.20564 7.8688 8.17801C7.8688 7.61246 7.54013 7.22779 6.99844 6.97323C7.00963 6.85423 7.03789 6.73924 7.08233 6.6335C7.1128 6.56037 7.09046 6.47709 7.03561 6.42224C6.93201 6.31864 6.75732 6.35521 6.70247 6.49131C6.6597 6.59651 6.62811 6.70764 6.60883 6.82282ZM6.60883 6.82282C6.59423 6.91001 6.58669 6.99952 6.58669 7.09055C6.58669 7.83724 7.08966 8.46591 7.77545 8.65643C7.82694 8.53607 7.858 8.40411 7.86645 8.25959C7.36187 8.11045 6.99295 7.64301 6.99295 7.09055C6.99295 7.05114 6.99479 7.01197 6.99844 6.97323C6.87858 6.91691 6.74829 6.86695 6.60883 6.82282ZM6.5656 2.73221C6.5656 1.31776 5.43151 0.184082 4.01606 0.184082C2.6011 0.184082 1.46652 1.31776 1.46652 2.73221C1.46652 4.14666 2.6011 5.28082 4.01606 5.28082C5.43151 5.28082 6.5656 4.14666 6.5656 2.73221ZM8.21175 5.10188V5.46549C9.1096 5.46549 9.83681 6.1927 9.83681 7.09055C9.83681 7.3018 9.79618 7.50494 9.72102 7.68979C9.66618 7.82589 9.49148 7.86245 9.38789 7.75885C9.33304 7.70401 9.3107 7.62072 9.34117 7.5476C9.40007 7.40743 9.43054 7.25102 9.43054 7.09055C9.43054 6.41818 8.88412 5.87175 8.21175 5.87175V6.23536C8.21175 6.32677 8.10206 6.37146 8.03706 6.30849L7.47031 5.74175C7.42969 5.70112 7.42969 5.63815 7.47031 5.59752L8.03909 5.03078C8.10206 4.96578 8.21175 5.01047 8.21175 5.10188Z"
        fill="black" />
</svg>