<svg width="17" height="17" viewBox="0 0 17 17" fill="none" xmlns="http://www.w3.org/2000/svg">
<path d="M8.63265 0.0402069C7.5383 0.0402069 6.45467 0.255755 5.44362 0.674544C4.43257 1.09333 3.51391 1.70716 2.74009 2.48098C1.17729 4.04379 0.299316 6.1634 0.299316 8.37354C0.299316 10.5837 1.17729 12.7033 2.74009 14.2661C3.51391 15.0399 4.43257 15.6537 5.44362 16.0725C6.45467 16.4913 7.5383 16.7069 8.63265 16.7069C10.8428 16.7069 12.9624 15.8289 14.5252 14.2661C16.088 12.7033 16.966 10.5837 16.966 8.37354C16.966 7.27919 16.7504 6.19556 16.3316 5.18451C15.9129 4.17346 15.299 3.25481 14.5252 2.48098C13.7514 1.70716 12.8327 1.09333 11.8217 0.674544C10.8106 0.255755 9.727 0.0402069 8.63265 0.0402069ZM12.1327 11.8735L7.79932 9.20687V4.20687H9.04932V8.54021L12.7993 10.7902L12.1327 11.8735Z" fill="#4C7987"/>
</svg>
