<svg viewBox="0 0 25 24" fill="none" xmlns="http://www.w3.org/2000/svg">
    <path
        d="M12.3401 13.4L7.44014 18.3C7.2568 18.4834 7.02347 18.575 6.74014 18.575C6.4568 18.575 6.22347 18.4834 6.04014 18.3C5.8568 18.1167 5.76514 17.8834 5.76514 17.6C5.76514 17.3167 5.8568 17.0834 6.04014 16.9L10.9401 12L6.04014 7.10005C5.8568 6.91672 5.76514 6.68338 5.76514 6.40005C5.76514 6.11672 5.8568 5.88338 6.04014 5.70005C6.22347 5.51672 6.4568 5.42505 6.74014 5.42505C7.02347 5.42505 7.2568 5.51672 7.44014 5.70005L12.3401 10.6L17.2401 5.70005C17.4235 5.51672 17.6568 5.42505 17.9401 5.42505C18.2235 5.42505 18.4568 5.51672 18.6401 5.70005C18.8235 5.88338 18.9151 6.11672 18.9151 6.40005C18.9151 6.68338 18.8235 6.91672 18.6401 7.10005L13.7401 12L18.6401 16.9C18.8235 17.0834 18.9151 17.3167 18.9151 17.6C18.9151 17.8834 18.8235 18.1167 18.6401 18.3C18.4568 18.4834 18.2235 18.575 17.9401 18.575C17.6568 18.575 17.4235 18.4834 17.2401 18.3L12.3401 13.4Z"
        fill="black" />
</svg>