<svg width="14" height="12" viewBox="0 0 14 12" fill="none" xmlns="http://www.w3.org/2000/svg">
    <path
        d="M11.7607 11.4351L7.16074 6.83512C7.06074 6.73512 6.99007 6.62679 6.94874 6.51012C6.90674 6.39345 6.88574 6.26845 6.88574 6.13512C6.88574 6.00179 6.90674 5.87679 6.94874 5.76012C6.99007 5.64345 7.06074 5.53512 7.16074 5.43512L11.7607 0.83512C11.9441 0.651787 12.1774 0.560121 12.4607 0.560121C12.7441 0.560121 12.9774 0.651787 13.1607 0.83512C13.3441 1.01845 13.4357 1.25179 13.4357 1.53512C13.4357 1.81845 13.3441 2.05179 13.1607 2.23512L9.26074 6.13512L13.1607 10.0351C13.3441 10.2185 13.4357 10.4518 13.4357 10.7351C13.4357 11.0185 13.3441 11.2518 13.1607 11.4351C12.9774 11.6185 12.7441 11.7101 12.4607 11.7101C12.1774 11.7101 11.9441 11.6185 11.7607 11.4351V11.4351Z"
        fill="#ABABAB" />
    <path
        d="M5.21069 11.4351L0.610692 6.83512C0.510692 6.73512 0.440025 6.62679 0.398692 6.51012C0.356692 6.39345 0.335692 6.26845 0.335692 6.13512C0.335692 6.00179 0.356692 5.87679 0.398692 5.76012C0.440026 5.64345 0.510692 5.53512 0.610692 5.43512L5.21069 0.83512C5.39403 0.651787 5.62736 0.560121 5.91069 0.560121C6.19403 0.560121 6.42736 0.651787 6.61069 0.83512C6.79403 1.01845 6.88569 1.25179 6.88569 1.53512C6.88569 1.81845 6.79403 2.05179 6.61069 2.23512L2.71069 6.13512L6.61069 10.0351C6.79402 10.2185 6.88569 10.4518 6.88569 10.7351C6.88569 11.0185 6.79402 11.2518 6.61069 11.4351C6.42736 11.6185 6.19402 11.7101 5.91069 11.7101C5.62736 11.7101 5.39402 11.6185 5.21069 11.4351V11.4351Z"
        fill="#ABABAB" />
</svg>