<svg width="14" height="12" viewBox="0 0 14 12" fill="none" xmlns="http://www.w3.org/2000/svg">
    <path
        d="M2.01074 0.835114L6.61074 5.43511C6.71074 5.53511 6.78141 5.64345 6.82274 5.76011C6.86474 5.87678 6.88574 6.00178 6.88574 6.13511C6.88574 6.26845 6.86474 6.39345 6.82274 6.51011C6.78141 6.62678 6.71074 6.73511 6.61074 6.83511L2.01074 11.4351C1.82741 11.6184 1.59408 11.7101 1.31074 11.7101C1.02741 11.7101 0.794076 11.6184 0.610743 11.4351C0.427409 11.2518 0.335742 11.0184 0.335742 10.7351C0.335742 10.4518 0.427409 10.2184 0.610743 10.0351L4.51074 6.13511L0.610743 2.23511C0.42741 2.05178 0.335743 1.81845 0.335743 1.53511C0.335743 1.25178 0.42741 1.01845 0.610744 0.835114C0.794077 0.651781 1.02741 0.560112 1.31074 0.560112C1.59408 0.560112 1.82741 0.651781 2.01074 0.835114V0.835114Z"
        fill="#ABABAB" />
    <path
        d="M8.56079 0.835114L13.1608 5.43511C13.2608 5.53511 13.3315 5.64345 13.3728 5.76011C13.4148 5.87678 13.4358 6.00178 13.4358 6.13511C13.4358 6.26845 13.4148 6.39345 13.3728 6.51011C13.3315 6.62678 13.2608 6.73511 13.1608 6.83511L8.56079 11.4351C8.37746 11.6184 8.14412 11.7101 7.86079 11.7101C7.57746 11.7101 7.34412 11.6184 7.16079 11.4351C6.97746 11.2518 6.88579 11.0184 6.88579 10.7351C6.88579 10.4518 6.97746 10.2184 7.16079 10.0351L11.0608 6.13511L7.16079 2.23511C6.97746 2.05178 6.88579 1.81845 6.88579 1.53511C6.88579 1.25178 6.97746 1.01845 7.16079 0.835114C7.34413 0.651781 7.57746 0.560112 7.86079 0.560112C8.14413 0.560112 8.37746 0.651781 8.56079 0.835114V0.835114Z"
        fill="#ABABAB" />
</svg>