<svg viewBox="0 0 23 26" fill="none" xmlns="http://www.w3.org/2000/svg">
    <path
        d="M16.6618 0.857758C20.3943 0.857758 22.4727 3.00859 22.4727 6.69401V19.1761C22.4727 22.9219 20.3943 25.0244 16.6618 25.0244H6.53474C2.86141 25.0244 0.722656 22.9219 0.722656 19.1761V6.69401C0.722656 3.00859 2.86141 0.857758 6.53474 0.857758H16.6618ZM6.86099 17.4603C6.49849 17.424 6.14807 17.5932 5.95474 17.9073C5.76141 18.2094 5.76141 18.6082 5.95474 18.9223C6.14807 19.2244 6.49849 19.4057 6.86099 19.3573H16.3343C16.8164 19.309 17.1802 18.897 17.1802 18.4148C17.1802 17.9194 16.8164 17.5086 16.3343 17.4603H6.86099ZM16.3343 11.949H6.86099C6.3402 11.949 5.91849 12.3732 5.91849 12.8928C5.91849 13.4123 6.3402 13.8353 6.86099 13.8353H16.3343C16.8539 13.8353 17.2768 13.4123 17.2768 12.8928C17.2768 12.3732 16.8539 11.949 16.3343 11.949ZM10.4727 6.47651H6.86099V6.48859C6.3402 6.48859 5.91849 6.91151 5.91849 7.43109C5.91849 7.95067 6.3402 8.37359 6.86099 8.37359H10.4727C10.9935 8.37359 11.4164 7.95067 11.4164 7.4178C11.4164 6.89942 10.9935 6.47651 10.4727 6.47651Z"
        fill="#4C7987" />
</svg>