<svg viewBox="0 0 25 25" fill="none" xmlns="http://www.w3.org/2000/svg">
    <path fill-rule="evenodd" clip-rule="evenodd"
        d="M23.3535 12.9462C23.3535 12.1307 23.2803 11.3466 23.1444 10.5939H12.3135V15.0423H18.5026C18.236 16.4798 17.4257 17.6978 16.2078 18.5132V21.3987H19.9244C22.0989 19.3966 23.3535 16.4484 23.3535 12.9462Z"
        fill="#4285F4" />
    <path fill-rule="evenodd" clip-rule="evenodd"
        d="M12.313 24.1846C15.418 24.1846 18.0211 23.1549 19.9239 21.3985L16.2073 18.5131C15.1775 19.2031 13.8602 19.6108 12.313 19.6108C9.31772 19.6108 6.7825 17.5878 5.87818 14.8696H2.03613V17.8492C3.92841 21.6076 7.8175 24.1846 12.313 24.1846Z"
        fill="#34A853" />
    <path fill-rule="evenodd" clip-rule="evenodd"
        d="M5.8787 14.8699C5.6487 14.1799 5.51802 13.4428 5.51802 12.6849C5.51802 11.9269 5.6487 11.1899 5.8787 10.4999V7.52032H2.03666C1.25779 9.07282 0.813477 10.8292 0.813477 12.6849C0.813477 14.5406 1.25779 16.2969 2.03666 17.8494L5.8787 14.8699Z"
        fill="#FBBC05" />
    <path fill-rule="evenodd" clip-rule="evenodd"
        d="M12.313 5.75868C14.0014 5.75868 15.5173 6.33891 16.7091 7.47845L20.0075 4.18004C18.0159 2.32436 15.4127 1.18481 12.313 1.18481C7.8175 1.18481 3.92841 3.76186 2.03613 7.52027L5.87818 10.4998C6.7825 7.78163 9.31772 5.75868 12.313 5.75868Z"
        fill="#EA4335" />
</svg>