<svg width="7" height="12" viewBox="0 0 7 12" fill="none" xmlns="http://www.w3.org/2000/svg">
    <path
        d="M4.97144 11.2619L0.371435 6.66193C0.271435 6.56193 0.200769 6.4536 0.159435 6.33693C0.117435 6.22027 0.0964355 6.09527 0.0964355 5.96193C0.0964355 5.8286 0.117435 5.7036 0.159435 5.58693C0.200769 5.47027 0.271435 5.36193 0.371435 5.26193L4.97144 0.661932C5.15477 0.478599 5.3881 0.386932 5.67144 0.386932C5.95477 0.386932 6.1881 0.478599 6.37144 0.661932C6.55477 0.845265 6.64644 1.0786 6.64644 1.36193C6.64644 1.64527 6.55477 1.8786 6.37144 2.06193L2.47144 5.96193L6.37144 9.86193C6.55477 10.0453 6.64644 10.2786 6.64644 10.5619C6.64644 10.8453 6.55477 11.0786 6.37144 11.2619C6.1881 11.4453 5.95477 11.5369 5.67144 11.5369C5.3881 11.5369 5.15477 11.4453 4.97144 11.2619V11.2619Z"
        fill="#ABABAB" />
</svg>