<svg viewBox="0 0 24 24" fill="none" xmlns="http://www.w3.org/2000/svg">
    <g clip-path="url(#clip0_243_1219)">
        <path
            d="M23.9976 6.40809C23.9983 7.24143 23.8331 8.06667 23.5116 8.83615C23.19 9.60564 22.7184 10.3041 22.1241 10.8913L18.6588 14.3391C17.4649 15.5256 15.8464 16.1922 14.1588 16.1922C12.4713 16.1922 10.8527 15.5256 9.6588 14.3391C9.56047 14.2504 9.48126 14.1428 9.42598 14.0228C9.37071 13.9027 9.34052 13.7728 9.33726 13.6408C9.33399 13.5088 9.35771 13.3775 9.40698 13.255C9.45625 13.1324 9.53004 13.021 9.62388 12.9277C9.71771 12.8343 9.82963 12.7609 9.95285 12.7119C10.0761 12.6628 10.208 12.6392 10.3407 12.6425C10.4733 12.6457 10.6039 12.6758 10.7246 12.7308C10.8452 12.7858 10.9534 12.8646 11.0425 12.9624C11.8707 13.7815 12.991 14.2412 14.1588 14.2412C15.3266 14.2412 16.4469 13.7815 17.2751 12.9624L20.7404 9.51469C21.1642 9.11078 21.5026 8.62676 21.7359 8.091C21.9691 7.55525 22.0925 6.97855 22.0988 6.39472C22.1051 5.8109 21.9942 5.2317 21.7725 4.6911C21.5508 4.15049 21.2229 3.65937 20.8079 3.24652C20.393 2.83367 19.8994 2.5074 19.356 2.28686C18.8126 2.06632 18.2305 1.95594 17.6437 1.9622C17.0569 1.96846 16.4772 2.09122 15.9387 2.32329C15.4002 2.55536 14.9138 2.89207 14.5078 3.31368L12.0833 5.72586C11.897 5.89384 11.6528 5.9841 11.4014 5.97794C11.1501 5.97178 10.9107 5.86968 10.7329 5.69278C10.5551 5.51587 10.4524 5.27771 10.4463 5.02761C10.4401 4.7775 10.5308 4.53461 10.6996 4.34921L13.1241 1.93703C14.0162 1.0562 15.1498 0.457132 16.3828 0.215021C17.6159 -0.0270904 18.8933 0.0985383 20.0548 0.57614C21.2163 1.05374 22.2101 1.86204 22.9116 2.89958C23.613 3.93713 23.9908 5.15769 23.9976 6.40809V6.40809ZM12.0833 18.1279L9.6588 20.5401C8.8264 21.3335 7.71473 21.7709 6.56204 21.7587C5.40934 21.7464 4.30735 21.2853 3.49222 20.4743C2.6771 19.6633 2.21371 18.5669 2.20136 17.4201C2.18901 16.2733 2.62868 15.1672 3.42615 14.3391L6.89146 10.8913C7.71967 10.0723 8.84001 9.6125 10.0078 9.6125C11.1756 9.6125 12.2959 10.0723 13.1241 10.8913C13.3105 11.0593 13.5546 11.1496 13.806 11.1434C14.0574 11.1373 14.2967 11.0352 14.4745 10.8583C14.6523 10.6814 14.755 10.4432 14.7612 10.1931C14.7673 9.94298 14.6766 9.70009 14.5078 9.51469C13.3139 8.3281 11.6953 7.66159 10.0078 7.66159C8.32023 7.66159 6.7017 8.3281 5.50779 9.51469L2.04248 12.9624C1.4195 13.5431 0.920228 14.2424 0.57436 15.0189C0.228492 15.7954 0.0430864 16.6331 0.0291669 17.4823C0.0152475 18.3315 0.173099 19.1749 0.493335 19.9621C0.813571 20.7494 1.28965 21.4646 1.89327 22.0652C2.49689 22.6657 3.21573 23.1394 4.00703 23.458C4.79834 23.7766 5.64596 23.9337 6.49949 23.9198C7.35303 23.906 8.19505 23.7215 8.97549 23.3774C9.75593 23.0333 10.4589 22.5365 11.0425 21.9167L13.467 19.5045C13.6358 19.3191 13.7265 19.0762 13.7203 18.8261C13.7141 18.576 13.6115 18.3379 13.4337 18.161C13.2559 17.9841 13.0165 17.882 12.7652 17.8758C12.5138 17.8696 12.2696 17.9599 12.0833 18.1279V18.1279Z"
            fill="black" />
    </g>
    <defs>
        <clipPath id="clip0_243_1219">
            <rect width="24" height="24" fill="white" />
        </clipPath>
    </defs>
</svg>