<svg viewBox="0 0 49 49" fill="none" xmlns="http://www.w3.org/2000/svg">
    <path
        d="M23.7867 4.79565C28.7519 4.79565 32.8013 8.77565 32.8013 13.6757V23.2557H20.592C19.717 23.2557 19.0251 23.9357 19.0251 24.7957C19.0251 25.6357 19.717 26.3357 20.592 26.3357H32.8013V35.8957C32.8013 40.7957 28.7519 44.7957 23.746 44.7957H13.8362C8.85069 44.7957 4.80127 40.8157 4.80127 35.9157V13.6957C4.80127 8.77565 8.87104 4.79565 13.8565 4.79565H23.7867ZM37.8817 17.8961C38.4817 17.2761 39.4617 17.2761 40.0617 17.8761L45.9017 23.6961C46.2017 23.9961 46.3617 24.3761 46.3617 24.7961C46.3617 25.1961 46.2017 25.5961 45.9017 25.8761L40.0617 31.6961C39.7617 31.9961 39.3617 32.1561 38.9817 32.1561C38.5817 32.1561 38.1817 31.9961 37.8817 31.6961C37.2817 31.0961 37.2817 30.1161 37.8817 29.5161L41.0817 26.3361H32.8017V23.2561H41.0817L37.8817 20.0761C37.2817 19.4761 37.2817 18.4961 37.8817 17.8961Z"
        fill="black" />
</svg>