<svg width="8" height="12" viewBox="0 0 8 12" fill="none" xmlns="http://www.w3.org/2000/svg">
    <path
        d="M2.56079 0.835114L7.16079 5.43511C7.26079 5.53511 7.33146 5.64345 7.37279 5.76011C7.41479 5.87678 7.43579 6.00178 7.43579 6.13511C7.43579 6.26845 7.41479 6.39345 7.37279 6.51011C7.33146 6.62678 7.26079 6.73511 7.16079 6.83511L2.56079 11.4351C2.37746 11.6184 2.14412 11.7101 1.86079 11.7101C1.57746 11.7101 1.34412 11.6184 1.16079 11.4351C0.977458 11.2518 0.885791 11.0184 0.885791 10.7351C0.885791 10.4518 0.977458 10.2184 1.16079 10.0351L5.06079 6.13511L1.16079 2.23511C0.977459 2.05178 0.885792 1.81845 0.885792 1.53511C0.885792 1.25178 0.977459 1.01845 1.16079 0.835114C1.34413 0.651781 1.57746 0.560112 1.86079 0.560112C2.14413 0.560112 2.37746 0.651781 2.56079 0.835114V0.835114Z"
        fill="#ABABAB" />
</svg>