<svg viewBox="0 0 18 18" fill="none" xmlns="http://www.w3.org/2000/svg">
    <path
        d="M14.0293 14.0638C14.3592 13.7362 14.8878 13.7362 15.2176 14.0638L17.3975 15.8233H17.4353C17.8763 16.2691 17.8763 16.9918 17.4353 17.4375C16.9943 17.8833 16.2793 17.8833 15.8383 17.4375L14.0293 15.3643L13.9607 15.2869C13.8328 15.125 13.7622 14.9232 13.7622 14.7141C13.7622 14.47 13.8583 14.236 14.0293 14.0638ZM8.01972 0.706482C9.96084 0.706482 11.8225 1.48589 13.1951 2.87324C14.5676 4.26059 15.3387 6.14225 15.3387 8.10426C15.3387 12.1899 12.0619 15.502 8.01972 15.502C3.97753 15.502 0.700684 12.1899 0.700684 8.10426C0.700684 4.01858 3.97753 0.706482 8.01972 0.706482Z"
        fill="#4C7987" />
</svg>