<svg viewBox="0 0 39 41" fill="none" xmlns="http://www.w3.org/2000/svg">
    <path
        d="M20.785 0.187744C22.2975 0.187744 23.667 1.02774 24.4232 2.26774C24.7911 2.86774 25.0364 3.60774 24.9751 4.38774C24.9342 4.98774 25.1181 5.58774 25.4452 6.14774C26.4876 7.84774 28.7972 8.48774 30.5958 7.52774C32.6193 6.36774 35.1742 7.06774 36.3392 9.04774L37.7087 11.4077C38.8941 13.3877 38.2401 15.9277 36.1962 17.0677C34.4588 18.0877 33.8457 20.3477 34.8881 22.0677C35.2151 22.6077 35.583 23.0677 36.1553 23.3477C36.8706 23.7277 37.4225 24.3277 37.8108 24.9277C38.5671 26.1677 38.5058 27.6877 37.77 29.0277L36.3392 31.4277C35.583 32.7077 34.1727 33.5077 32.7215 33.5077C32.0061 33.5077 31.209 33.3077 30.555 32.9077C30.0235 32.5677 29.4104 32.4477 28.7563 32.4477C26.7328 32.4477 25.0364 34.1077 24.9751 36.0877C24.9751 38.3877 23.0947 40.1877 20.7442 40.1877H17.9644C15.5935 40.1877 13.7131 38.3877 13.7131 36.0877C13.6722 34.1077 11.9758 32.4477 9.95229 32.4477C9.2778 32.4477 8.66462 32.5677 8.15364 32.9077C7.49959 33.3077 6.68203 33.5077 5.98709 33.5077C4.51548 33.5077 3.10518 32.7077 2.34893 31.4277L0.938626 29.0277C0.182377 27.7277 0.141499 26.1677 0.897747 24.9277C1.22477 24.3277 1.83795 23.7277 2.53288 23.3477C3.10518 23.0677 3.47308 22.6077 3.82055 22.0677C4.8425 20.3477 4.22933 18.0877 2.492 17.0677C0.468525 15.9277 -0.185528 13.3877 0.979504 11.4077L2.34893 9.04774C3.5344 7.06774 6.06885 6.36774 8.11277 7.52774C9.89097 8.48774 12.2006 7.84774 13.243 6.14774C13.57 5.58774 13.754 4.98774 13.7131 4.38774C13.6722 3.60774 13.897 2.86774 14.2854 2.26774C15.0416 1.02774 16.4111 0.227744 17.9031 0.187744H20.785ZM19.3747 14.5477C16.1658 14.5477 13.57 17.0677 13.57 20.2077C13.57 23.3477 16.1658 25.8477 19.3747 25.8477C22.5837 25.8477 25.1181 23.3477 25.1181 20.2077C25.1181 17.0677 22.5837 14.5477 19.3747 14.5477Z"
        fill="black" />
</svg>