<svg viewBox="0 0 23 23" fill="none" xmlns="http://www.w3.org/2000/svg">
    <path
        d="M0.722656 4.33935C0.722656 3.29782 1.1364 2.29895 1.87287 1.56248C2.60934 0.826007 3.60821 0.412262 4.64974 0.412262H18.5456C19.5871 0.412262 20.586 0.826007 21.3224 1.56248C22.0589 2.29895 22.4727 3.29782 22.4727 4.33935V18.2352C22.4727 19.2767 22.0589 20.2756 21.3224 21.012C20.586 21.7485 19.5871 22.1623 18.5456 22.1623H4.64974C3.60821 22.1623 2.60934 21.7485 1.87287 21.012C1.1364 20.2756 0.722656 19.2767 0.722656 18.2352V4.33935ZM12.2018 7.96435C12.2018 8.4646 12.6078 8.8706 13.1081 8.8706H17.3372C17.5776 8.8706 17.8081 8.77512 17.9781 8.60516C18.148 8.43521 18.2435 8.2047 18.2435 7.96435C18.2435 7.72399 18.148 7.49349 17.9781 7.32353C17.8081 7.15358 17.5776 7.0581 17.3372 7.0581H13.1081C12.8677 7.0581 12.6372 7.15358 12.4673 7.32353C12.2973 7.49349 12.2018 7.72399 12.2018 7.96435V7.96435ZM13.1081 13.7039C12.8677 13.7039 12.6372 13.7994 12.4673 13.9694C12.2973 14.1393 12.2018 14.3698 12.2018 14.6102C12.2018 14.8505 12.2973 15.081 12.4673 15.251C12.6372 15.4209 12.8677 15.5164 13.1081 15.5164H17.3372C17.5776 15.5164 17.8081 15.4209 17.9781 15.251C18.148 15.081 18.2435 14.8505 18.2435 14.6102C18.2435 14.3698 18.148 14.1393 17.9781 13.9694C17.8081 13.7994 17.5776 13.7039 17.3372 13.7039H13.1081ZM10.1235 7.39643C10.2125 7.31346 10.2839 7.21341 10.3335 7.10225C10.383 6.99108 10.4096 6.87108 10.4118 6.74939C10.4139 6.62771 10.3916 6.50684 10.346 6.394C10.3004 6.28115 10.2326 6.17865 10.1465 6.09259C10.0604 6.00653 9.95793 5.93869 9.84509 5.89311C9.73224 5.84753 9.61137 5.82515 9.48969 5.8273C9.36801 5.82944 9.24801 5.85608 9.13684 5.90561C9.02567 5.95514 8.92562 6.02656 8.84266 6.1156L7.06641 7.89185L6.49849 7.32393C6.3267 7.16385 6.09947 7.0767 5.86469 7.08084C5.62991 7.08498 5.4059 7.1801 5.23986 7.34614C5.07382 7.51218 4.97871 7.73618 4.97457 7.97096C4.97043 8.20575 5.05758 8.43297 5.21766 8.60476L6.42599 9.8131C6.59591 9.98281 6.82625 10.0781 7.06641 10.0781C7.30656 10.0781 7.5369 9.98281 7.70682 9.8131L10.1235 7.39643V7.39643ZM10.1235 12.7614C9.95357 12.5917 9.72323 12.4964 9.48307 12.4964C9.24292 12.4964 9.01258 12.5917 8.84266 12.7614L7.06641 14.5377L6.49849 13.9698C6.3267 13.8097 6.09947 13.7225 5.86469 13.7267C5.62991 13.7308 5.4059 13.8259 5.23986 13.992C5.07382 14.158 4.97871 14.382 4.97457 14.6168C4.97043 14.8516 5.05758 15.0788 5.21766 15.2506L6.42599 16.4589C6.59591 16.6286 6.82625 16.724 7.06641 16.724C7.30656 16.724 7.5369 16.6286 7.70682 16.4589L10.1235 14.0423C10.2932 13.8723 10.3885 13.642 10.3885 13.4018C10.3885 13.1617 10.2932 12.9314 10.1235 12.7614V12.7614Z"
        fill="#4C7987" />
</svg>