<svg viewBox="0 0 12 16" fill="none" xmlns="http://www.w3.org/2000/svg">
    <path
        d="M10.4979 5.50005C10.6271 5.50005 10.7443 5.5659 10.837 5.67717C10.9234 5.796 10.9669 5.94359 10.9543 6.09951C10.9543 6.15098 10.6088 11.2524 10.4115 13.3998C10.2879 14.7175 9.56045 15.5175 8.46922 15.5395C7.63016 15.5614 6.81 15.569 6.00246 15.569C5.14511 15.569 4.30668 15.5614 3.49283 15.5395C2.43817 15.51 1.71005 14.6956 1.5928 13.3998C1.38981 11.2449 1.05065 6.15098 1.04435 6.09951C1.03804 5.94359 1.08091 5.796 1.16791 5.67717C1.25364 5.5659 1.3772 5.50005 1.50706 5.50005H10.4979ZM7.33834 0.430984C7.91138 0.430984 8.42327 0.897988 8.57141 1.56405L8.67732 2.11659C8.76305 2.56694 9.09716 2.88559 9.48171 2.88559H11.3717C11.6238 2.88559 11.8337 3.13007 11.8337 3.44115V3.72877C11.8337 4.03229 11.6238 4.28433 11.3717 4.28433H0.628975C0.376184 4.28433 0.16626 4.03229 0.16626 3.72877V3.44115C0.16626 3.13007 0.376184 2.88559 0.628975 2.88559H2.51892C2.90283 2.88559 3.23695 2.56694 3.32331 2.11734L3.42229 1.60114C3.5761 0.897988 4.08232 0.430984 4.66166 0.430984H7.33834Z"
        fill="black" />
</svg>