<svg viewBox="0 0 24 24" fill="none" xmlns="http://www.w3.org/2000/svg">
    <path
        d="M13 20.0001C13.2653 20.0001 13.5196 20.1055 13.7071 20.293C13.8947 20.4805 14 20.7349 14 21.0001C14 21.2653 13.8947 21.5197 13.7071 21.7072C13.5196 21.8947 13.2653 22.0001 13 22.0001C12.7348 22.0001 12.4805 21.8947 12.2929 21.7072C12.1054 21.5197 12 21.2653 12 21.0001C12 20.7349 12.1054 20.4805 12.2929 20.293C12.4805 20.1055 12.7348 20.0001 13 20.0001ZM9.50003 19.0001C9.76525 19.0001 10.0196 19.1055 10.2071 19.293C10.3947 19.4805 10.5 19.7349 10.5 20.0001C10.5 20.2653 10.3947 20.5197 10.2071 20.7072C10.0196 20.8947 9.76525 21.0001 9.50003 21.0001C9.23482 21.0001 8.98046 20.8947 8.79293 20.7072C8.60539 20.5197 8.50003 20.2653 8.50003 20.0001C8.50003 19.7349 8.60539 19.4805 8.79293 19.293C8.98046 19.1055 9.23482 19.0001 9.50003 19.0001ZM16.5 19.0001C16.7653 19.0001 17.0196 19.1055 17.2071 19.293C17.3947 19.4805 17.5 19.7349 17.5 20.0001C17.5 20.2653 17.3947 20.5197 17.2071 20.7072C17.0196 20.8947 16.7653 21.0001 16.5 21.0001C16.2348 21.0001 15.9805 20.8947 15.7929 20.7072C15.6054 20.5197 15.5 20.2653 15.5 20.0001C15.5 19.7349 15.6054 19.4805 15.7929 19.293C15.9805 19.1055 16.2348 19.0001 16.5 19.0001ZM13.002 6.0091C16.17 6.0091 17.968 8.1061 18.229 10.6391H18.309C18.7933 10.6384 19.273 10.7332 19.7206 10.9179C20.1682 11.1027 20.5751 11.3738 20.918 11.7158C21.2608 12.0578 21.5329 12.464 21.7188 12.9112C21.9046 13.3584 22.0005 13.8378 22.001 14.3221C22.0004 14.8063 21.9044 15.2856 21.7185 15.7327C21.5326 16.1798 21.2604 16.5858 20.9176 16.9277C20.5748 17.2696 20.1679 17.5407 19.7204 17.7254C19.2728 17.91 18.7932 18.0048 18.309 18.0041H7.69403C7.20985 18.0048 6.73028 17.91 6.2827 17.7254C5.83512 17.5407 5.4283 17.2696 5.08547 16.9277C4.74263 16.5858 4.4705 16.1798 4.2846 15.7327C4.09871 15.2856 4.00269 14.8063 4.00203 14.3221C4.00256 13.8378 4.09848 13.3584 4.28432 12.9112C4.47015 12.464 4.74227 12.0578 5.08511 11.7158C5.42796 11.3738 5.83483 11.1027 6.28247 10.9179C6.73011 10.7332 7.20977 10.6384 7.69403 10.6391H7.77403C8.03703 8.0891 9.83403 6.0091 13.002 6.0091ZM4.36703 10.1641C4.43657 10.3316 4.44308 10.5186 4.38535 10.6905C4.32762 10.8624 4.20956 11.0075 4.05303 11.0991L3.96103 11.1441L3.03503 11.5281C2.85968 11.5996 2.66378 11.6021 2.48666 11.5351C2.30954 11.4681 2.16431 11.3366 2.08013 11.167C1.99596 10.9974 1.97906 10.8022 2.03283 10.6206C2.0866 10.439 2.20706 10.2845 2.37003 10.1881L2.46103 10.1421L3.38703 9.7581C3.47804 9.7204 3.57558 9.701 3.67408 9.701C3.77259 9.701 3.87013 9.72041 3.96113 9.75811C4.05214 9.79581 4.13482 9.85107 4.20447 9.92073C4.27411 9.99039 4.32935 10.0731 4.36703 10.1641ZM10.854 5.3311L10.683 5.3891C8.89803 6.0191 7.62003 7.3941 7.06803 9.2121L6.99704 9.4621L6.93903 9.7001L6.73303 9.7391C6.13475 9.86472 5.56721 10.1074 5.06303 10.4531C4.6047 9.66533 4.4335 8.74308 4.57857 7.8433C4.72363 6.94351 5.17599 6.12179 5.85868 5.51798C6.54136 4.91416 7.41218 4.56555 8.32295 4.53148C9.23371 4.49741 10.1281 4.77998 10.854 5.3311ZM2.94103 5.3621L3.04603 5.3971L3.97203 5.7811C4.1457 5.85431 4.28543 5.99021 4.36344 6.16178C4.44145 6.33334 4.45201 6.52798 4.39301 6.70697C4.33402 6.88596 4.20981 7.03618 4.04508 7.12775C3.88035 7.21931 3.68719 7.2455 3.50403 7.2011L3.39803 7.1671L2.47203 6.7831C2.29791 6.71011 2.15772 6.57413 2.07946 6.40232C2.00119 6.2305 1.99061 6.03548 2.04982 5.8562C2.10903 5.67692 2.23368 5.52657 2.39889 5.43517C2.56409 5.34376 2.75769 5.31703 2.94103 5.3621ZM6.75603 2.3761L6.80103 2.4671L7.18503 3.3931C7.25754 3.56861 7.26078 3.7651 7.19408 3.9429C7.12738 4.1207 6.99572 4.26658 6.82567 4.3511C6.65561 4.43562 6.45983 4.45248 6.27783 4.39829C6.09582 4.34409 5.94116 4.22288 5.84503 4.0591L5.79903 3.9671L5.41503 3.0411C5.34356 2.86575 5.34107 2.66985 5.40805 2.49273C5.47503 2.31561 5.60653 2.17038 5.77616 2.0862C5.94578 2.00202 6.14097 1.98512 6.32253 2.0389C6.5041 2.09267 6.65961 2.21313 6.75603 2.3761ZM11.109 2.0571C11.2751 2.12601 11.4108 2.25227 11.4916 2.41287C11.5723 2.57347 11.5927 2.75773 11.549 2.9321L11.515 3.0371L11.131 3.9631C11.0578 4.13677 10.9219 4.2765 10.7504 4.35451C10.5788 4.43252 10.3842 4.44307 10.2052 4.38408C10.0262 4.32509 9.87595 4.20087 9.78439 4.03615C9.69283 3.87142 9.66664 3.67826 9.71104 3.4951L9.74604 3.3891L10.129 2.4631C10.1667 2.37209 10.222 2.28939 10.2916 2.21973C10.3612 2.15007 10.4439 2.09481 10.5349 2.05711C10.6259 2.01941 10.7235 2 10.822 2C10.9205 2 11.018 2.0194 11.109 2.0571Z"
        fill="black" />
</svg>