<svg width="419" height="419" viewBox="0 0 419 419" fill="none" xmlns="http://www.w3.org/2000/svg">
<path d="M209.312 34.8862C204.687 34.8862 200.25 36.7238 196.98 39.9946C193.709 43.2655 191.871 47.7018 191.871 52.3274V87.2099C191.871 91.8356 193.709 96.2718 196.98 99.5427C200.25 102.814 204.687 104.651 209.312 104.651C213.938 104.651 218.374 102.814 221.645 99.5427C224.916 96.2718 226.754 91.8356 226.754 87.2099V52.3274C226.754 47.7018 224.916 43.2655 221.645 39.9946C218.374 36.7238 213.938 34.8862 209.312 34.8862Z" fill="#4c7987"/>
<path d="M366.284 191.857H331.401C326.775 191.857 322.339 193.695 319.068 196.966C315.797 200.236 313.96 204.673 313.96 209.298C313.96 213.924 315.797 218.36 319.068 221.631C322.339 224.902 326.775 226.74 331.401 226.74H366.284C370.909 226.74 375.346 224.902 378.616 221.631C381.887 218.36 383.725 213.924 383.725 209.298C383.725 204.673 381.887 200.236 378.616 196.966C375.346 193.695 370.909 191.857 366.284 191.857Z" fill="#4c7987"/>
<path d="M104.665 209.298C104.665 204.673 102.828 200.236 99.5568 196.966C96.286 193.695 91.8497 191.857 87.224 191.857H52.3416C47.7159 191.857 43.2797 193.695 40.0088 196.966C36.7379 200.236 34.9004 204.673 34.9004 209.298C34.9004 213.924 36.7379 218.36 40.0088 221.631C43.2797 224.902 47.7159 226.74 52.3416 226.74H87.224C91.8497 226.74 96.286 224.902 99.5568 221.631C102.828 218.36 104.665 213.924 104.665 209.298Z" fill="#4c7987"/>
<path d="M108.507 87.209C105.107 83.9942 100.569 82.2616 95.8917 82.3924C91.2144 82.5232 86.7806 84.5068 83.5657 87.9067C80.3508 91.3066 78.6183 95.8443 78.7491 100.522C78.8799 105.199 80.8635 109.633 84.2634 112.848L109.379 137.091C111.064 138.718 113.06 139.99 115.248 140.829C117.435 141.668 119.769 142.057 122.111 141.974C124.46 141.965 126.784 141.482 128.942 140.553C131.099 139.624 133.047 138.268 134.668 136.568C137.917 133.3 139.74 128.879 139.74 124.272C139.74 119.664 137.917 115.243 134.668 111.976L108.507 87.209Z" fill="#4c7987"/>
<path d="M296.512 141.975C301.002 141.957 305.313 140.208 308.546 137.092L333.661 112.848C336.725 109.647 338.456 105.4 338.501 100.969C338.547 96.5377 336.904 92.2555 333.907 88.9918C330.91 85.7281 326.783 83.7276 322.364 83.3966C317.945 83.0657 313.566 84.4291 310.116 87.2099L285 111.976C281.752 115.244 279.929 119.665 279.929 124.272C279.929 128.88 281.752 133.301 285 136.569C288.02 139.755 292.131 141.686 296.512 141.975Z" fill="#4c7987"/>
<path d="M209.312 313.946C204.687 313.946 200.25 315.783 196.98 319.054C193.709 322.325 191.871 326.761 191.871 331.387V366.269C191.871 370.895 193.709 375.331 196.98 378.602C200.25 381.873 204.687 383.711 209.312 383.711C213.938 383.711 218.374 381.873 221.645 378.602C224.916 375.331 226.754 370.895 226.754 366.269V331.387C226.754 326.761 224.916 322.325 221.645 319.054C218.374 315.783 213.938 313.946 209.312 313.946Z" fill="#4c7987"/>
<path d="M309.249 281.507C305.919 278.292 301.447 276.532 296.819 276.613C292.191 276.695 287.785 278.612 284.57 281.943C281.355 285.273 279.595 289.744 279.677 294.373C279.758 299.001 281.675 303.407 285.006 306.622L310.121 331.388C313.354 334.505 317.665 336.254 322.156 336.272C324.493 336.286 326.808 335.83 328.966 334.931C331.123 334.032 333.077 332.709 334.713 331.04C336.348 329.418 337.646 327.489 338.531 325.364C339.416 323.238 339.872 320.959 339.872 318.656C339.872 316.354 339.416 314.074 338.531 311.949C337.646 309.824 336.348 307.894 334.713 306.273L309.249 281.507Z" fill="#4c7987"/>
<path d="M109.374 281.507L84.2587 305.75C82.624 307.372 81.3264 309.301 80.441 311.426C79.5555 313.551 79.0996 315.831 79.0996 318.134C79.0996 320.436 79.5555 322.716 80.441 324.841C81.3264 326.966 82.624 328.895 84.2587 330.517C85.8945 332.186 87.8491 333.509 90.0063 334.408C92.1636 335.307 94.4794 335.763 96.8164 335.749C101.116 335.786 105.277 334.233 108.502 331.389L133.617 307.146C136.948 303.931 138.865 299.525 138.947 294.896C139.028 290.268 137.268 285.797 134.053 282.466C130.839 279.136 126.432 277.219 121.804 277.137C117.176 277.055 112.705 278.815 109.374 282.03V281.507Z" fill="#4c7987"/>
</svg>
