<svg width="25" height="25" viewBox="0 0 25 25" fill="none" xmlns="http://www.w3.org/2000/svg">
<path d="M20.8691 10.8179H14.3066C13.7099 10.8179 13.1376 10.5808 12.7157 10.1589C12.2937 9.7369 12.0566 9.16461 12.0566 8.56787V2.00537C12.0566 1.95564 12.0369 1.90795 12.0017 1.87279C11.9666 1.83763 11.9189 1.81787 11.8691 1.81787H7.55664C6.76099 1.81787 5.99793 2.13394 5.43532 2.69655C4.87271 3.25916 4.55664 4.02222 4.55664 4.81787V19.8179C4.55664 20.6135 4.87271 21.3766 5.43532 21.9392C5.99793 22.5018 6.76099 22.8179 7.55664 22.8179H18.0566C18.8523 22.8179 19.6154 22.5018 20.178 21.9392C20.7406 21.3766 21.0566 20.6135 21.0566 19.8179V11.0054C21.0566 10.9556 21.0369 10.908 21.0017 10.8728C20.9666 10.8376 20.9189 10.8179 20.8691 10.8179ZM16.5566 18.3179H9.05664C8.85773 18.3179 8.66696 18.2389 8.52631 18.0982C8.38566 17.9576 8.30664 17.7668 8.30664 17.5679C8.30664 17.369 8.38566 17.1782 8.52631 17.0375C8.66696 16.8969 8.85773 16.8179 9.05664 16.8179H16.5566C16.7556 16.8179 16.9463 16.8969 17.087 17.0375C17.2276 17.1782 17.3066 17.369 17.3066 17.5679C17.3066 17.7668 17.2276 17.9576 17.087 18.0982C16.9463 18.2389 16.7556 18.3179 16.5566 18.3179ZM16.5566 14.5679H9.05664C8.85773 14.5679 8.66696 14.4889 8.52631 14.3482C8.38566 14.2075 8.30664 14.0168 8.30664 13.8179C8.30664 13.619 8.38566 13.4282 8.52631 13.2875C8.66696 13.1469 8.85773 13.0679 9.05664 13.0679H16.5566C16.7556 13.0679 16.9463 13.1469 17.087 13.2875C17.2276 13.4282 17.3066 13.619 17.3066 13.8179C17.3066 14.0168 17.2276 14.2075 17.087 14.3482C16.9463 14.4889 16.7556 14.5679 16.5566 14.5679Z" fill="white"/>
<path d="M20.4576 9.158L13.7165 2.41691C13.7034 2.40388 13.6867 2.39501 13.6686 2.39143C13.6504 2.38784 13.6316 2.3897 13.6146 2.39676C13.5975 2.40383 13.5829 2.41578 13.5726 2.43113C13.5623 2.44647 13.5567 2.46452 13.5566 2.483V8.56785C13.5566 8.76676 13.6357 8.95753 13.7763 9.09818C13.917 9.23883 14.1077 9.31785 14.3066 9.31785H20.3915C20.41 9.31777 20.428 9.31223 20.4434 9.30192C20.4587 9.29162 20.4707 9.277 20.4777 9.25992C20.4848 9.24284 20.4866 9.22405 20.4831 9.20592C20.4795 9.18778 20.4706 9.17111 20.4576 9.158Z" fill="white"/>
</svg>