<svg width="60" height="60" viewBox="0 0 60 60" fill="none" xmlns="http://www.w3.org/2000/svg">
<path d="M24.7862 42.1365H34.7007V52.051H24.7862V42.1365Z" fill="#4c7987"/>
<path d="M49.8698 21.5888L37.8981 9.61704C36.5049 8.22214 34.6149 7.43759 32.6434 7.43585H24.7862V22.3076H37.1793C37.8367 22.3076 38.4671 22.5687 38.9319 23.0335C39.3968 23.4984 39.6579 24.1288 39.6579 24.7862C39.6579 25.4436 39.3968 26.074 38.9319 26.5388C38.4671 27.0037 37.8367 27.2648 37.1793 27.2648H22.3076C21.6502 27.2648 21.0198 27.0037 20.5549 26.5388C20.0901 26.074 19.8289 25.4436 19.8289 24.7862V7.43585H14.8717C12.8996 7.43585 11.0083 8.21927 9.61376 9.61376C8.21927 11.0083 7.43585 12.8996 7.43585 14.8717V44.6151C7.43585 46.5873 8.21927 48.4786 9.61376 49.8731C11.0083 51.2676 12.8996 52.051 14.8717 52.051H19.8289V42.1365C19.8289 40.8218 20.3512 39.5609 21.2809 38.6312C22.2106 37.7016 23.4714 37.1793 24.7862 37.1793H34.7007C36.0154 37.1793 37.2763 37.7016 38.206 38.6312C39.1356 39.5609 39.6579 40.8218 39.6579 42.1365V52.051H44.6151C46.5873 52.051 48.4786 51.2676 49.8731 49.8731C51.2676 48.4786 52.051 46.5873 52.051 44.6151V26.8434C52.0493 24.872 51.2647 22.9819 49.8698 21.5888Z" fill="#4c7987"/>
</svg>
