<?xml version="1.0" standalone="no"?>
<!DOCTYPE svg PUBLIC "-//W3C//DTD SVG 20010904//EN"
 "http://www.w3.org/TR/2001/REC-SVG-20010904/DTD/svg10.dtd">
<svg version="1.0" xmlns="http://www.w3.org/2000/svg"
 width="48.000000pt" height="48.000000pt" viewBox="0 0 48.000000 48.000000"
 preserveAspectRatio="xMidYMid meet">

<g transform="translate(0.000000,48.000000) scale(0.100000,-0.100000)"
fill="#000000" stroke="none">
<path d="M52 388 c-17 -17 -17 -279 0 -296 8 -8 45 -12 100 -12 81 0 88 2 88
20 0 18 -7 20 -80 20 l-80 0 0 100 0 100 160 0 160 0 0 -39 c0 -34 12 -51 36
-51 10 0 3 107 -8 118 -7 7 -45 12 -98 12 -74 0 -90 3 -105 20 -15 16 -31 20
-90 20 -42 0 -76 -5 -83 -12z"/>
<path d="M331 186 c-87 -48 -50 -186 49 -186 51 0 100 49 100 99 0 75 -83 124
-149 87z m37 -48 c8 -8 15 -8 27 2 22 19 44 -2 25 -25 -10 -12 -10 -18 0 -30
19 -22 -3 -44 -25 -25 -12 10 -18 10 -30 0 -22 -19 -44 3 -25 25 10 12 10 18
0 30 -21 25 4 47 28 23z"/>
</g>
</svg>
