<svg viewBox="0 0 23 25" fill="none" xmlns="http://www.w3.org/2000/svg">
    <path
        d="M16.2572 0.550082C16.7702 0.548877 17.1758 0.947428 17.177 1.47883L17.1782 2.38462C20.5067 2.64549 22.7055 4.91361 22.709 8.39187L22.7222 18.573C22.7269 22.3653 20.3445 24.6986 16.5256 24.7047L7.19737 24.7167C3.40237 24.7216 0.990079 22.3327 0.985307 18.5295L0.972176 8.46795C0.967412 4.96675 3.0886 2.70467 6.41713 2.39912L6.41594 1.49332C6.41475 0.96192 6.80844 0.562162 7.33337 0.562162C7.8583 0.560954 8.252 0.959505 8.25319 1.49091L8.25439 2.33632L15.3409 2.32665L15.3397 1.48124C15.3385 0.949843 15.7322 0.551293 16.2572 0.550082ZM16.7439 17.6986H16.732C16.1832 17.7119 15.743 18.1721 15.7549 18.7276C15.7561 19.2832 16.1987 19.7409 16.7475 19.753C17.307 19.7518 17.7604 19.2916 17.7592 18.724C17.7592 18.1564 17.3046 17.6986 16.7439 17.6986ZM6.91343 17.6998C6.36464 17.724 5.93515 18.1841 5.93634 18.7397C5.9614 19.2952 6.41475 19.73 6.96354 19.7047C7.50159 19.6805 7.92988 19.2204 7.90483 18.6648C7.8929 18.1213 7.45029 17.6986 6.91343 17.6998ZM11.8287 17.6938C11.2799 17.7192 10.8516 18.1781 10.8516 18.7336C10.8766 19.2892 11.33 19.7228 11.8788 19.6986C12.4156 19.6733 12.8451 19.2143 12.8201 18.6576C12.8081 18.1153 12.3655 17.6926 11.8287 17.6938ZM6.90746 13.352C6.35868 13.3762 5.93038 13.8363 5.93157 14.3919C5.95543 14.9474 6.40998 15.3822 6.95877 15.3568C7.49562 15.3327 7.92392 14.8725 7.89887 14.317C7.88694 13.7735 7.44552 13.3508 6.90746 13.352ZM11.8239 13.3097C11.2751 13.3339 10.8456 13.794 10.8468 14.3496C10.8707 14.9051 11.3252 15.3387 11.874 15.3146C12.4109 15.2892 12.8392 14.8303 12.8153 14.2747C12.8022 13.7312 12.3608 13.3085 11.8239 13.3097ZM16.7392 13.3158C16.1904 13.3279 15.7609 13.7747 15.7621 14.3303V14.3436C15.774 14.8991 16.2273 15.3206 16.7773 15.3085C17.3142 15.2952 17.7425 14.8351 17.7306 14.2795C17.7055 13.7481 17.2748 13.3146 16.7392 13.3158ZM15.3433 4.18656L8.25677 4.19622L8.25797 5.17327C8.25797 5.6938 7.86546 6.10443 7.34053 6.10443C6.8156 6.10564 6.42071 5.69622 6.42071 5.17568L6.41952 4.24573C4.09313 4.47883 2.80586 5.84597 2.80943 8.46554L2.81063 8.84114L20.873 8.81699V8.39428C20.8217 5.79767 19.5189 4.43535 17.1806 4.23245L17.1818 5.1624C17.1818 5.68172 16.7773 6.09356 16.2643 6.09356C15.7394 6.09477 15.3445 5.68414 15.3445 5.16482L15.3433 4.18656Z"
        fill="#000000" />
</svg>